<?xml version="1.0" encoding="UTF-8" standalone="no"?>
<!-- Created with Inkscape (http://www.inkscape.org/) -->

<svg
   width="1387.0909"
   height="512.31262"
   viewBox="0 0 367.00115 135.54937"
   version="1.1"
   id="svg1"
   inkscape:export-filename="mfcarchive_3_2.svg"
   inkscape:export-xdpi="96"
   inkscape:export-ydpi="96"
   sodipodi:docname="mfcarchive_3_2.svg"
   xmlns:inkscape="http://www.inkscape.org/namespaces/inkscape"
   xmlns:sodipodi="http://sodipodi.sourceforge.net/DTD/sodipodi-0.dtd"
   xmlns="http://www.w3.org/2000/svg"
   xmlns:svg="http://www.w3.org/2000/svg">
  <sodipodi:namedview
     id="namedview1"
     pagecolor="#ffffff"
     bordercolor="#000000"
     borderopacity="0.25"
     inkscape:showpageshadow="2"
     inkscape:pageopacity="0.0"
     inkscape:pagecheckerboard="0"
     inkscape:deskcolor="#d1d1d1"
     inkscape:document-units="mm" />
  <defs
     id="defs1" />
  <g
     inkscape:label="Layer 1"
     inkscape:groupmode="layer"
     id="layer1"
     transform="translate(-14.936918,-64.516987)">
    <g
       id="g1"
       transform="translate(-1.5371877,8.9924158)">
      <g
         id="g2"
         transform="matrix(1.627496,0,0,1.627496,-35.089928,-6.6413662)"
         style="stroke-width:0.614441">
        <path
           d="M 92.91363,40.48569 V 39.514854 L 78.212406,39.445514 66.007616,70.09618 c -0.901491,2.288398 -2.427089,5.755668 -2.635126,7.142576 H 63.2338 C 63.095109,75.574461 61.638855,72.037846 60.945401,70.16552 L 48.948648,39.445509 33.137897,39.514854 v 0.970836 l 3.259234,0.832145 c 2.843161,0.762799 4.091378,1.248217 3.952687,7.142576 L 39.8644,71.136356 c -0.208036,11.164609 -0.554763,12.620862 -3.259233,13.383662 l -3.051198,0.832144 v 0.970836 h 16.989623 v -0.970836 l -3.397925,-0.90149 c -2.981852,-0.832144 -3.744651,-2.288398 -3.46727,-16.781586 l 0.277382,-15.949442 c 0.06934,-3.120542 0.06934,-5.686322 0,-6.310431 h 0.138691 c 0.485418,1.594944 1.456253,3.883343 2.288398,6.03305 l 14.146461,34.880735 h 2.635125 L 77.24157,50.679464 c 0.90149,-2.288399 1.80298,-4.715488 2.288398,-6.03305 h 0.138691 c 0,1.941671 0,3.813997 0.06934,6.310431 l 0.624109,26.420597 c 0.138691,5.963704 -0.416073,6.379776 -3.259234,7.142576 l -3.051197,0.832144 v 0.970836 h 19.555402 v -0.970836 l -3.051198,-0.832144 c -2.843161,-0.7628 -3.120543,-1.178872 -3.259233,-7.142576 L 86.603199,48.460411 c -0.138691,-5.963704 0.416072,-6.379777 3.259233,-7.142576 z m 35.93872,8.945556 V 39.514854 H 95.427863 v 0.970836 l 3.051198,0.832145 c 2.843159,0.762799 3.259229,1.178872 3.259229,7.142576 v 28.917031 c 0,5.963704 -0.41607,6.379776 -3.259229,7.142576 l -3.051198,0.832144 v 0.970836 h 21.774457 v -0.970836 l -4.43811,-0.832144 c -2.9125,-0.554763 -3.95268,-1.178872 -3.95268,-7.142576 v -12.96759 h 8.04406 c 6.37978,0 7.28127,0.208036 7.97472,2.635125 l 0.83215,2.912507 h 1.04018 V 56.019059 h -1.04018 l -0.7628,2.912507 c -0.62411,2.427089 -1.66429,2.635125 -8.04407,2.635125 h -8.04406 V 42.358016 h 8.11341 c 7.76668,0 9.43097,0.693454 9.98573,3.259233 l 0.83215,3.813997 z m 44.39891,26.004525 -1.24822,-0.346727 -1.59494,3.536615 c -1.80299,4.022033 -6.93454,5.825013 -11.442,5.825013 -12.55151,0 -19.00063,-10.193773 -19.00063,-22.883981 0,-10.679191 4.99286,-20.456892 16.85093,-20.456892 4.50745,0 10.81788,1.664289 11.78871,5.963704 l 0.9015,3.883342 h 1.24821 v -10.5405 c -3.53661,-1.248218 -8.18275,-2.219053 -14.07711,-2.219053 -14.63188,0 -24.895,9.430974 -24.895,24.686962 0,15.255987 10.67919,24.40958 25.51911,24.40958 5.89435,0 11.58068,-1.456254 13.93842,-2.357744 z"
           id="text1"
           style="-inkscape-font-specification:'LeMonde Livre';fill:#cd3529;stroke-width:0.921661;stroke-linecap:round"
           aria-label="MFC" />
        <path
           d="m 64.550339,120.92534 v -0.6382 l -1.2764,-0.45586 c -1.777842,-0.6382 -2.233699,-1.00288 -3.692442,-4.7865 L 49.643815,89.334448 h -2.2337 L 37.062161,114.0419 c -1.960185,4.64974 -2.324871,5.15118 -4.102713,5.78938 l -1.2764,0.45586 v 0.6382 h 10.575883 v -0.6382 l -1.914599,-0.54703 c -2.051357,-0.59261 -2.416043,-1.32198 -0.227929,-6.88344 l 1.185228,-3.00866 h 11.35084 l 1.914599,5.19677 c 1.367571,3.64686 0.911714,4.19389 -0.957299,4.69533 L 51.604,120.28714 v 0.6382 z M 51.968685,107.93341 h -9.892097 l 3.692442,-9.299479 c 0,0 1.2764,-3.282171 1.413157,-3.92037 h 0.09117 c 0.136757,0.729371 1.2764,3.92037 1.2764,3.92037 z m 28.548376,-6.92902 c 0,-1.549916 -1.276399,-2.78073 -2.917485,-2.78073 -2.142528,0 -3.829199,1.367571 -6.062898,4.05713 h -0.04559 v -3.646859 l -0.273514,-0.182343 -7.567226,1.094057 v 0.547025 l 1.869014,0.41027 c 1.68667,0.36469 2.32487,0.59262 2.32487,3.92037 v 11.4876 c 0,3.32776 -0.227928,3.60127 -1.823428,4.01154 l -1.686671,0.45586 v 0.54703 h 12.080211 v -0.54703 l -2.598385,-0.59261 c -1.595499,-0.36469 -2.051356,-0.54703 -2.051356,-3.87479 v -11.57877 c 0,-1.23081 1.413156,-2.68955 3.327756,-2.68955 1.276399,0 2.279285,0.72937 2.735142,1.68667 l 0.227928,0.0912 c 1.2764,0.0456 2.461628,-1.00289 2.461628,-2.41604 z m 16.604877,15.49914 -0.501443,-0.6382 c -1.230813,1.04847 -3.236584,2.00577 -5.743798,2.00577 -3.783613,0 -7.430469,-3.05425 -7.430469,-9.75534 0,-3.5101 1.641085,-7.6584 5.698213,-7.6584 2.142527,0 4.23947,1.36757 5.105598,3.37334 l 0.3191,0.13676 c 0.866128,-0.27352 1.732257,-1.00289 1.732257,-2.32487 0,-2.461631 -3.236585,-3.373345 -5.333527,-3.373345 -6.564341,0 -10.940569,5.789385 -10.940569,12.080215 0,6.97461 4.285056,11.39642 9.117141,11.12291 4.102713,-0.22793 6.427583,-3.191 7.977497,-4.96884 z m 25.311812,4.42181 v -0.54703 l -1.68667,-0.45586 c -1.5955,-0.41027 -1.82343,-0.68378 -1.82343,-4.01154 V 105.4262 c 0,-4.33064 -2.64397,-6.974612 -6.92902,-6.974612 -3.32776,0 -5.33353,1.823432 -7.15696,3.601272 h -0.0456 V 87.100749 l -0.27352,-0.182343 -7.476054,1.094057 v 0.547028 l 1.869014,0.410271 c 1.68667,0.364686 1.96018,0.592614 1.96018,3.920371 v 23.020777 c 0,3.32776 -0.22792,3.60127 -1.823423,4.01154 l -1.686671,0.45586 v 0.54703 h 10.940564 v -0.54703 l -1.68667,-0.45586 c -1.5955,-0.41027 -1.82342,-0.68378 -1.82342,-4.01154 v -11.39642 c 0,-1.50433 1.91459,-3.191 4.87767,-3.191 3.32775,0 5.33352,1.96018 5.33352,5.1056 v 9.48182 c 0,3.32776 -0.22793,3.60127 -1.82343,4.01154 l -1.68667,0.45586 v 0.54703 z m 8.49068,-31.043864 c 0,-1.549913 -0.9573,-2.598385 -2.68956,-2.598385 -1.96019,0 -2.59838,1.504329 -2.59838,2.598385 0,1.094057 0.50144,2.643971 2.55279,2.643971 1.68668,0 2.73515,-1.002885 2.73515,-2.643971 z m 2.78072,31.043864 v -0.54703 l -1.68667,-0.45586 c -1.5955,-0.41027 -1.82342,-0.68378 -1.82342,-4.01154 V 98.633931 l -0.27352,-0.182343 -7.47605,1.094057 v 0.547025 l 1.86901,0.41027 c 1.68667,0.36469 1.96018,0.59262 1.96018,3.92037 v 11.4876 c 0,3.32776 -0.22792,3.60127 -1.82342,4.01154 l -1.68667,0.45586 v 0.54703 z m 21.80169,-21.334109 v -0.547029 h -8.25102 v 0.547029 l 1.68667,0.455859 c 1.41316,0.36468 2.05136,0.9573 0.6382,5.01442 l -3.09982,8.98039 c -0.68379,2.00577 -0.86613,2.41604 -1.00289,3.23658 h -0.0912 c -0.0912,-0.77495 -0.27351,-1.41315 -0.91171,-3.14541 l -3.28217,-9.07156 c -1.41316,-3.82919 -1.13965,-4.64974 0.18234,-5.01442 l 1.68667,-0.455859 V 99.044202 H 132.8963 v 0.547029 l 1.13964,0.410269 c 0.9573,0.3191 1.23081,0.72937 2.50721,4.05713 l 6.51876,17.09464 h 2.68956 l 6.29082,-17.09464 c 1.23082,-3.32776 1.5955,-3.64686 2.50722,-4.05713 z m 17.74449,16.912299 -0.45586,-0.59262 c -1.09405,0.82054 -3.23658,1.9146 -6.24524,1.9146 -6.10848,0 -8.70687,-5.37911 -8.29659,-10.89498 h 14.81535 c 0.0456,-0.27352 0.0456,-0.59262 0.0456,-0.91172 0,-3.46451 -2.50721,-7.977493 -7.93191,-7.977493 -6.83785,0 -10.30237,6.518753 -10.30237,12.718413 0,6.74668 4.33064,10.71264 9.39066,10.71264 4.19388,0 6.29082,-2.18812 8.98038,-4.96884 z m -4.42181,-12.99193 c 0,1.36757 -0.68379,1.9146 -4.05713,1.9146 h -6.51875 c 0.22792,-2.46163 2.14252,-5.515869 5.74379,-5.515869 3.05425,0 4.83209,2.005769 4.83209,3.601269 z"
           id="text2"
           style="-inkscape-font-specification:'LeMonde Livre';fill:#ad2c22;stroke-width:0.921661;stroke-linecap:round"
           aria-label="Archive" />
      </g>
      <g
         fill-rule="evenodd"
         clip-rule="evenodd"
         id="g46"
         transform="matrix(1.1002739,0,0,1.1002739,220.72929,18.51153)"
         style="stroke-width:3.11884">
        <path
           d="m 89.589,98.285 c -0.035,-0.955 -0.45,-2.605 -1.042,-4.316 -5.9,1.229 -7.327,2.586 -7.573,5.371 -4.59,-3.113 -2.684,-7.005 -1.769,-8.717 -9.867,-2.673 -5.688,5.85 -17.242,7.324 -0.082,-1.885 0.163,-5.408 -1.803,-5.408 -1.394,0 -1.803,1.801 -3.032,2.375 -1.147,0.491 -4.344,1.229 -2.951,2.704 -1.147,0.164 -4.179,1.146 -3.359,2.949 0.246,0.494 0.819,2.705 0.819,3.525 0,0.49 0.656,0.982 1.557,0.736 -0.982,1.229 -1.557,5.08 1.394,5.408 1.065,0.082 3.523,0.246 4.179,0.656 0.574,0.164 2.294,0.49 2.049,-0.902 0.41,-0.326 1.967,1.721 2.623,0.82 0.491,-0.984 2.048,-2.705 4.917,-3.443 1.065,-0.326 1.394,-2.293 0.983,-3.113 1.638,1.312 6.227,6.721 12.29,0.82 -3.113,0.492 -4.096,-1.639 -5.079,-3.113 2.131,-0.328 5.079,4.916 9.341,2.459 -2.294,-0.328 -2.786,-4.262 -1.147,-6.229 0.983,-1.146 2.294,0 2.786,0.656 1.473,1.803 2.047,1.149 2.059,-0.562 z"
           fill="#cc222d"
           id="path34"
           style="fill:#cd3529;fill-opacity:1;stroke-width:3.11884" />
        <path
           d="m 64.913,81.64 c 1.147,-2.786 9.177,-1.639 14.421,-8.849 -5.899,-0.656 -6.719,-7.047 -16.552,-9.669 0.328,-0.819 0.163,-6.392 0.163,-6.392 0.493,0 2.95,-0.983 3.606,-1.64 2.131,-1.475 -1.434,-2.99 -2.048,-3.933 -1.23,-1.558 -2.049,0.655 -2.212,1.476 -0.165,-0.984 -0.165,-3.771 -1.803,-3.771 -2.868,0.821 -3.934,-1.31 -4.752,-0.326 0,0 -0.983,1.802 -0.492,3.113 -0.819,0 -5.081,0.328 -4.588,1.966 0.327,0.983 0.163,4.425 0.163,4.425 -0.163,0.491 0.984,1.803 2.786,1.967 -1.311,0.983 -3.276,2.458 -2.622,3.114 0.983,0.491 2.13,2.131 2.293,2.785 0,0 1.148,1.147 1.803,0.492 0.328,-0.655 2.131,-1.311 3.442,0 -2.295,0.656 -6.393,1.803 -5.572,6.228 1.639,-3.278 6.555,0.492 9.996,0.165 -2.458,0.491 -2.294,2.623 -6.227,1.802 0.983,1.803 1.639,3.606 7.539,3.77 -0.165,0.491 0.328,2.786 0.656,3.277 z m 38.675,21.305 c 0.738,-1.803 7.049,-1.311 7.131,-12.865 3.852,3.031 12.865,21.224 23.189,21.224 1.803,0 5.244,-0.82 5.244,-4.59 0,-8.193 -19.994,-0.982 -16.389,-16.225 2.785,9.834 7.211,3.769 9.178,5.409 -8.357,-12.292 -9.996,-8.85 -8.521,-26.714 0.328,-2.95 -3.277,-8.359 -5.9,-9.178 1.146,-0.655 4.754,-1.802 7.211,1.146 -1.146,-4.097 -4.916,-16.715 11.309,-16.88 -1.475,0.328 -6.719,2.787 -6.719,7.703 0,2.458 3.275,4.917 3.275,8.194 0,1.922 -1.164,4.265 -2.252,7.125 2.252,-0.405 5.695,-4.994 5.039,-6.797 6.721,9.177 -7.375,11.308 -6.637,18.505 0.648,3.861 2.523,7.24 4.846,10.291 0.645,-2.41 0.316,-7.328 -1.158,-8.803 2.949,2.294 7.553,4.423 5.988,14.339 2.295,2.41 4.543,4.639 6.189,6.803 0.605,-1.475 0.277,-7.047 -0.705,-8.686 3.604,4.426 5.244,10.653 2.949,15.733 -0.984,2.295 -5.408,7.703 -12.455,7.703 -1.477,0 -6.064,-1.146 -8.523,-1.146 0.82,0.49 1.148,3.439 0.82,5.244 0.656,-0.984 2.949,-3.279 5.08,-3.279 0.818,0 3.277,2.131 3.277,4.426 1.477,-0.492 5.408,-3.115 5.408,-5.736 0.984,1.967 1.311,7.047 -0.818,9.014 0.656,0 3.77,-1.639 4.096,-2.459 0.328,1.967 -0.326,5.082 -3.113,6.883 0.656,0 3.279,0.166 4.426,-0.818 -0.49,1.146 -2.131,6.719 -5.9,7.703 -1.475,0.656 1.475,8.85 -4.588,8.521 1.146,1.477 1.311,4.426 -0.492,4.916 -1.148,0.164 -3.441,0.656 -3.77,1.148 -0.656,0.656 -2.457,0.49 -2.457,-0.656 -0.656,0.41 -2.377,4.344 -3.854,2.377 -0.408,-0.82 -1.514,-2.336 -3.031,-2.949 -0.982,-0.656 -1.311,-3.359 1.146,-3.854 1.312,-0.326 0.166,-3.113 -0.818,-4.096 -0.818,-1.146 0.492,-3.934 2.785,-2.785 0.984,0.654 1.969,1.309 2.787,1.309 1.311,0 3.441,-3.275 3.441,-6.881 0,-1.477 -1.146,-2.459 -2.457,-2.459 -2.131,0 -5.082,6.883 -10.326,4.262 0.328,2.293 0.164,8.686 -6.391,12.125 1.475,-2.129 -0.656,-4.26 1.475,-6.881 -2.131,0.984 -5.9,6.227 -5.736,7.703 -4.098,-4.262 2.949,-13.932 1.967,-16.389 -1.312,-1.641 -2.295,-4.59 -2.295,-5.9 0,-1.967 3.605,-10.488 3.605,-15.078 10e-4,-2.458 -2.294,-5.897 -6.556,-7.702 z"
           fill="#cd3529"
           id="path36"
           style="stroke-width:3.11884" />
        <path
           d="m 70.156,143.426 c 0.206,0.82 2.623,0 3.278,-0.328 -0.82,0.656 -0.492,3.115 0.491,3.277 0.984,0.164 2.458,0.818 2.786,1.312 0.328,0.49 3.769,1.311 3.934,-1.641 0.982,0.656 2.458,1.969 3.441,1.146 0,0 2.459,-1.309 3.934,-0.98 0.819,0.326 3.114,-1.312 -0.164,-3.443 0,0 0.819,-2.129 1.64,-2.623 0.982,7.869 6.063,5.9 8.358,4.918 -1.967,0 -2.95,-2.295 -2.95,-2.949 5.571,2.457 8.03,0.49 9.341,-0.818 -1.639,0.49 -4.096,-2.297 -4.096,-3.77 3.439,0.49 4.916,-1.969 4.424,-4.59 -1.967,2.459 -3.932,-0.656 -4.098,-2.131 4.918,-1.967 5.082,-5.244 4.754,-7.867 -1.312,2.787 -5.08,1.967 -5.08,-0.164 0,-4.424 5.408,-5.08 7.332,-4.74 0.693,-2.426 1.271,-4.895 1.271,-6.73 0,-1.557 -0.92,-3.512 -2.68,-5.189 -0.68,0.764 -3.793,2.895 -5.76,2.895 -1.803,0 -4.59,-1.475 -8.195,-1.475 -2.459,0 -8.85,2.457 -7.867,9.504 -3.605,-0.818 -10.816,1.639 -7.703,7.867 2.785,-7.375 6.556,2.131 9.669,-1.475 0.982,2.623 3.604,12.455 -4.425,12.455 -3.77,0 -2.131,-4.26 -4.425,-4.26 -0.819,-0.166 -2.95,0.818 -2.786,2.457 -1.147,0 -4.425,1.312 -3.769,3.443 -0.821,0.49 -3.688,2.785 -2.5,3.398 0.371,0.247 1.681,1.804 1.845,2.501 z m -2.458,-34.58 c -0.409,0.164 -2.541,0.736 -2.622,2.131 0.738,0.736 1.721,1.393 5.654,0.736 -0.656,-0.328 -2.786,-1.393 -3.032,-2.867 z m -9.423,2.949 c -0.411,-0.16 -1.803,-0.572 -3.371,-0.234 0.035,1.043 0.306,2.193 3.626,4.4 -0.255,-0.688 -1.084,-2.92 -0.255,-4.166 z m -7.62,-7.619 c 0.014,-0.441 -0.056,-1.893 -0.896,-3.258 -0.972,0.377 -1.968,1.014 -2.951,4.879 0.563,-0.469 2.397,-1.992 3.847,-1.621 z m 4.178,-9.261 c 0.424,-0.121 2.458,-0.737 2.827,-1.85 -0.657,-0.808 -1.569,-1.562 -5.548,-1.314 0.619,0.394 2.628,1.672 2.721,3.164 z M 52.645,66.879 c -0.154,-0.414 -0.771,-1.727 -2.067,-2.673 -0.754,0.721 -1.433,1.687 -0.874,5.635 0.343,-0.648 1.461,-2.752 2.941,-2.962 z m -2.704,-9.342 c 0.101,-0.429 -0.024,-2.119 -0.239,-3.369 -1.028,0.181 -2.13,0.609 -3.85,4.206 0.644,-0.348 2.74,-1.482 4.089,-0.837 z m 7.125,-9.89 c 0.837,0.643 2.232,0.724 3.435,0.505 0.1,-1.039 -0.02,-2.214 -3.028,-4.832 0.163,0.715 0.574,3.201 -0.407,4.327 z m 7.825,2.746 c 0.554,0.887 1.536,1.584 2.262,1.984 0.646,-0.819 1.529,-3.514 -1.246,-5.128 0.315,1.532 -0.012,2.556 -1.016,3.144 z"
           fill="#cd3529"
           id="path38"
           style="stroke-width:3.11884" />
        <path
           d="m 73.598,133.594 c -0.163,-1.312 0.82,-2.541 2.284,-2.92 -0.99,-0.326 -4.987,-0.688 -6.855,2.625 0.732,-0.004 3.67,-1.264 4.571,0.295 z m -4.043,10.515 c -0.148,-0.416 -1.038,-2.037 -1.99,-2.455 -0.765,0.709 -2.326,2.428 -0.745,5.787 0.352,-0.644 1.251,-3.142 2.735,-3.332 z m 6.649,4.377 c -0.348,-0.271 -1.531,-1.09 -2.863,-1.178 -0.265,1.008 -0.972,2.92 2.34,5.455 -0.047,-0.73 -0.628,-3.322 0.523,-4.277 z m 10.871,-1.07 c -0.44,0.039 -2.004,0.107 -2.917,1.203 0.493,0.918 1.731,2.756 5.452,2.283 -0.532,-0.504 -2.725,-2.002 -2.535,-3.486 z m 46.216,3.361 c -0.439,0.037 -2.004,0.105 -2.916,1.201 1.484,3.328 4.434,2.346 5.779,0.234 -0.361,0.145 -3.72,0.638 -2.863,-1.435 z M 139,142.826 c -0.01,0.928 -0.832,1.992 -2.014,2.592 4.215,2.023 5.605,-1.178 5.049,-3.619 -0.152,0.359 -1.939,2.486 -3.035,1.027 z m -15.992,9.834 c -0.229,-0.379 -0.969,-1.758 -2.354,-2.1 -2.35,2.785 -0.18,5.014 2.307,5.305 -0.289,-0.263 -2.193,-3.072 0.047,-3.205 z m -1.395,-7.865 c 0.537,-0.428 -0.215,-2.148 -1.471,-2.826 -2.705,0.434 -3.688,3.588 -0.965,4.648 -0.306,-0.609 0.235,-2.252 2.436,-1.822 z M 71.304,56.402 c 0.819,-0.984 3.441,-4.589 6.063,-4.589 3.278,0 3.278,6.719 8.194,6.719 1.229,0 1.557,-0.696 2.233,-1.392 -0.758,0.41 -3.38,1.885 -5.837,-5.327 -1.64,-1.147 -2.624,-5.08 1.801,-5.08 l 5.409,-0.165 c 0.654,-1.966 7.21,-5.9 12.292,-5.735 0.328,-2.459 3.277,-7.867 10.816,-5.735 0,0 -4.262,2.622 -4.262,3.932 2.949,-1.639 8.193,0.328 10.326,-3.932 0.654,1.801 0.164,5.244 -5.736,7.702 3.932,-0.491 9.832,-0.164 13.602,-2.131 -0.162,4.753 -9.67,5.082 -9.832,7.375 -0.166,1.803 0.818,4.916 2.949,4.916 0.656,0 2.295,-0.163 2.623,-1.31 1.639,3.113 -1.803,8.194 -7.047,6.556 3.113,3.604 -0.166,13.274 7.209,9.996 -1.146,3.114 -3.604,7.047 -8.686,4.753 0,6.228 6.721,6.063 6.721,13.275 0,1.803 -1.967,5.9 -4.098,7.703 0,-3.605 -4.998,-7.293 -7.047,-5.246 0,13.932 -9.506,10.489 -9.506,16.063 -1.311,-2.131 0.982,-6.066 0.492,-7.213 -4.917,8.031 -10.817,5.9 -10.817,7.375 0,-2.949 1.966,-4.426 1.966,-5.9 0,-2.457 -2.131,-6.227 -1.147,-7.375 -1.967,1.968 -8.522,1.147 -9.833,4.917 -0.493,-1.148 -1.803,-3.606 2.458,-8.031 -4.261,2.458 -8.441,-2.704 -11.882,2.868 -0.656,-3.934 1.393,-6.31 4.506,-9.096 -2.95,0.656 -5.736,0 -6.227,1.803 0.655,-3.606 4.261,-4.26 6.392,-5.572 2.131,-1.147 3.441,-2.541 5.572,-4.998 1.311,-1.803 4.917,-4.016 12.947,-4.18 0.329,0.083 1.064,-0.82 1.064,-1.311 -0.164,0.328 -2.704,2.376 -4.507,-0.165 -0.738,0.574 -2.728,2.294 -5.489,1.065 -0.656,-2.294 2.867,-1.72 1.474,-5.982 -8.849,0 -7.292,-6.31 -8.849,-6.31 -1.23,0 -3.032,1.884 -5.162,1.393 -0.573,-0.079 -2.046,-0.407 -1.145,-1.636 z M 101.787,45.75 c -4.754,-0.82 -4.426,1.311 -5.245,2.13 5.737,1.147 4.589,-2.13 5.245,-2.13 z M 94.74,60.991 c -1.64,-2.131 -4.262,-0.328 -4.753,-0.165 2.786,4.262 3.441,0 4.753,0.165 z"
           fill="#cd3529"
           id="path40"
           style="stroke-width:3.11884" />
      </g>
    </g>
  </g>
</svg>
