<?xml version="1.0" encoding="UTF-8" standalone="no"?>
<!-- Created with Inkscape (http://www.inkscape.org/) -->

<svg
   width="653.30035"
   height="549.64899"
   viewBox="0 0 172.85238 145.42796"
   version="1.1"
   id="svg1"
   xml:space="preserve"
   xmlns:inkscape="http://www.inkscape.org/namespaces/inkscape"
   xmlns:sodipodi="http://sodipodi.sourceforge.net/DTD/sodipodi-0.dtd"
   xmlns="http://www.w3.org/2000/svg"
   xmlns:svg="http://www.w3.org/2000/svg"><sodipodi:namedview
     id="namedview1"
     pagecolor="#ffffff"
     bordercolor="#000000"
     borderopacity="0.25"
     inkscape:showpageshadow="2"
     inkscape:pageopacity="0.0"
     inkscape:pagecheckerboard="0"
     inkscape:deskcolor="#d1d1d1"
     inkscape:document-units="mm" /><defs
     id="defs1" /><g
     inkscape:label="Layer 1"
     inkscape:groupmode="layer"
     id="layer1"
     transform="translate(-167.57375,-140.32204)"><g
       fill-rule="evenodd"
       clip-rule="evenodd"
       id="g46"
       transform="matrix(1.6935989,0,0,1.6935989,89.919008,81.705205)"
       style="fill:#cd3529;fill-opacity:0.523227;stroke-width:2.02621"><path
         id="path34"
         style="fill:#cd3529;fill-opacity:0.523227;stroke-width:2.02621"
         d="m 108.50535,34.624934 c -4.78316,0.265481 -6.77982,4.210197 -7.04632,6.208133 -5.081992,-0.165 -11.638076,3.768881 -12.292076,5.734879 l -5.409002,0.165075 c -4.424996,0 -3.440864,3.933076 -1.800865,5.080074 2.456997,7.211993 5.078792,5.736923 5.836792,5.326924 -0.676,0.695999 -1.003928,1.391993 -2.232927,1.391993 -4.915995,0 -4.915908,-6.718917 -8.193905,-6.718917 -2.621997,0 -5.244198,3.60482 -6.063197,4.588819 -0.900999,1.228999 0.572146,1.557096 1.145145,1.636096 2.129998,0.491 3.932156,-1.392909 5.162154,-1.392909 1.556999,0 -2.81e-4,6.310046 8.84871,6.310046 1.392999,4.261996 -2.129767,3.68773 -1.473768,5.981728 2.760998,1.228999 4.750948,-0.490897 5.488947,-1.064897 1.802998,2.540998 4.343045,0.493074 4.507044,0.165075 0,0.490999 -0.734981,1.393829 -1.063981,1.310829 -8.029992,0.164 -11.636189,2.377255 -12.947188,4.180253 -2.130998,2.456997 -3.440943,3.850996 -5.571941,4.997995 -2.130998,1.311999 -5.73682,1.965945 -6.39182,5.571941 0.491,-1.802998 3.276749,-1.147001 6.226746,-1.803001 -3.112997,2.785998 -5.161824,5.161868 -4.505824,9.095864 3.440996,-5.571995 7.620991,-0.4099 11.881986,-2.867898 -4.260995,4.424996 -2.95111,6.882969 -2.45811,8.030968 1.310998,-3.769997 7.866054,-2.949139 9.833052,-4.917137 -0.983999,1.147999 1.146976,4.91825 1.146976,7.375247 0,1.473996 -1.965939,2.950956 -1.965939,5.899956 0,-1.475 5.900095,0.65605 10.81709,-7.374944 0.490001,1.146999 -1.80317,5.081924 -0.492171,7.212914 0,-5.57399 9.505952,-2.13116 9.505952,-16.06315 2.049,-2.046998 7.04724,1.641068 7.04724,5.246065 2.131,-1.802999 4.09787,-5.899957 4.09787,-7.702955 0,-7.211993 -6.72106,-7.046902 -6.72106,-13.274896 5.082,2.293998 7.54008,-1.63898 8.68608,-4.752977 -7.37499,3.277996 -4.09596,-6.391995 -7.20895,-9.995991 5.24399,1.637998 8.68593,-3.443287 7.04693,-6.556284 -0.328,1.146999 -1.96688,1.310219 -2.62288,1.310219 -2.131,0 -3.11506,-3.113223 -2.94906,-4.916221 0.162,-2.292998 9.66983,-2.621947 9.83183,-7.374942 -3.77,1.966998 -9.67,1.640014 -13.60199,2.131014 5.89999,-2.457998 6.39009,-5.901041 5.7361,-7.70204 -2.133,4.259996 -7.37715,2.293186 -10.32614,3.932184 0,-1.309999 4.26202,-3.932184 4.26202,-3.932184 -1.41356,-0.399749 -2.66574,-0.534213 -3.76955,-0.472948 z M 57.473011,43.31986 c 0.163,0.714999 0.573959,3.20102 -0.40704,4.327019 0.836999,0.642999 2.232131,0.723986 3.43513,0.504986 0.1,-1.038999 -0.02009,-2.214008 -3.02809,-4.832005 z m 78.567089,0.951999 c -16.22499,0.165 -12.45496,12.783291 -11.30896,16.880287 -2.457,-2.947997 -6.06509,-1.80106 -7.21109,-1.146061 2.623,0.819 6.22795,6.227946 5.89996,9.177943 -1.475,17.863983 0.16401,14.421963 8.521,26.71395 -1.967,-1.639998 -6.39295,4.424992 -9.17795,-5.409002 -3.60499,15.242984 16.38904,8.03188 16.38904,16.224874 0,3.76999 -3.44124,4.59004 -5.24424,4.59004 -10.32399,0 -19.33681,-18.192789 -23.1888,-21.223786 -0.082,11.553986 -6.39315,11.061806 -7.13115,12.864806 4.262,1.805 6.55698,5.24404 6.55598,7.70204 0,2.66952 -1.18628,6.56686 -2.20669,9.83305 h 18.75988 c 0.328,-1.805 -1.9e-4,-4.75393 -0.82018,-5.24393 2.45899,0 7.04614,1.14606 8.52313,1.14606 7.047,0 11.47102,-5.40826 12.45502,-7.70326 2.295,-5.07999 0.65494,-11.307009 -2.94906,-15.733004 0.982,1.638998 1.31015,7.211074 0.70515,8.686074 -1.646,-2.163995 -3.89422,-4.392827 -6.18922,-6.802825 1.565,-9.91599 -3.03883,-12.045184 -5.98783,-14.339181 1.474,1.474998 1.80296,6.392943 1.15797,8.80294 -2.323,-3.050997 -4.19805,-6.429748 -4.84605,-10.290744 -0.738,-7.196993 13.35783,-9.328103 6.63684,-18.505094 0.656,1.802998 -2.78688,6.39203 -5.03888,6.79703 1.088,-2.859997 2.25215,-5.203044 2.25215,-7.125042 0,-3.276997 -3.27525,-5.735908 -3.27525,-8.193906 0,-4.915995 5.24423,-7.37526 6.71923,-7.703259 z M 126.69708,120.48 h 8.14325 c -0.59763,-1.80858 -2.3853,-3.2789 -3.06348,-3.2789 -2.131,0 -4.42377,2.2949 -5.07977,3.2789 z m 8.14325,0 h 2.28877 z m 2.28877,0 h 4.08352 c 0.0748,-1.78916 -0.2509,-3.59021 -0.75061,-4.58912 0,1.74279 -1.73397,3.47165 -3.33291,4.58912 z m 4.08352,0 H 107.9372 100.7844 76.104733 Z m -65.107887,0 H 100.7844 c 1.47998,-2.35119 5.17431,-2.71401 6.69664,-2.44499 0.693,-2.426 1.27086,-4.8949 1.27086,-6.7299 0,-1.557 -0.91994,-3.51201 -2.67994,-5.18901 -0.68,0.764 -3.7929,2.89475 -5.7599,2.89475 -1.803001,0 -4.590132,-1.47499 -8.195129,-1.47499 -2.458997,0 -8.849807,2.45713 -7.866808,9.50413 -2.571799,-0.58356 -6.960771,0.50995 -8.14539,3.44001 z M 100.23028,45.572619 c 0.44761,0.01861 0.96252,0.07478 1.55677,0.177279 -0.656,0 0.49184,3.277097 -5.245154,2.130098 0.716625,-0.716624 0.555165,-2.437629 3.688384,-2.307377 z m -34.323228,1.676373 c 0.315,1.531998 -0.01208,2.556039 -1.016076,3.144038 0.554,0.886999 1.535914,1.583942 2.261914,1.983942 0.645999,-0.818999 1.52916,-3.513982 -1.245838,-5.12798 z m -9.486732,1.03835 c -0.259781,-0.04858 -0.479902,0.0027 -0.684402,0.24868 0,0 -0.982866,1.801916 -0.491866,3.112915 -0.818999,0 -5.080903,0.327941 -4.587904,1.965939 0.327,0.982999 0.162939,4.42527 0.162939,4.42527 -0.163,0.491 0.983819,1.802855 2.785818,1.966855 -1.310999,0.982999 -3.275964,2.458136 -2.621965,3.114135 0.982999,0.491 2.130037,2.130904 2.293037,2.784903 0,0 1.148001,1.146866 1.803001,0.491866 0.327999,-0.654999 2.131149,-1.310998 3.442148,0 -2.294998,0.656 -6.393246,1.802971 -5.572246,6.227966 1.638998,-3.277996 6.554994,0.492074 9.99599,0.165075 -2.457997,0.490999 -2.293749,2.623084 -6.226745,1.802085 0.982999,1.802998 1.638801,3.605856 7.538796,3.769856 -0.165,0.490999 0.328025,2.786074 0.656025,3.277074 1.146998,-2.785998 9.176961,-1.639023 14.420956,-8.849015 -5.898994,-0.656 -6.71898,-7.046897 -16.55197,-9.668894 0.328,-0.818999 0.162938,-6.392125 0.162938,-6.392125 0.493,0 2.950003,-0.983063 3.606002,-1.640063 2.130998,-1.474998 -1.434019,-2.989795 -2.048018,-3.932794 -1.229999,-1.557998 -2.048873,0.654905 -2.211873,1.475904 -0.164999,-0.983999 -0.165002,-3.771076 -1.803001,-3.771076 -2.150997,0.61575 -3.288317,-0.428822 -4.06766,-0.574556 z m -6.718307,5.880731 c -1.027999,0.181 -2.130106,0.608887 -3.850104,4.205883 0.643999,-0.347999 2.740021,-1.481965 4.089019,-0.836966 0.101,-0.428999 -0.02392,-2.118918 -0.238915,-3.368917 z m 42.942789,5.791328 c 0.727025,-0.01337 1.480315,0.232513 2.095314,1.031637 -1.311999,-0.164999 -1.966981,4.096922 -4.752978,-0.165074 0.306875,-0.101875 1.445957,-0.844278 2.657664,-0.866563 z m -42.066766,4.246465 c -0.754,0.721 -1.432886,1.687107 -0.873887,5.635103 0.343,-0.648 1.460825,-2.751877 2.940823,-2.961877 -0.154,-0.414 -0.770938,-1.727227 -2.066936,-2.673226 z m 25.527002,25.903836 c -5.968191,-0.139194 -4.032329,6.547462 -14.142069,7.837211 -0.082,-1.884999 0.162997,-5.407783 -1.803001,-5.407783 -1.393999,0 -1.803058,1.800811 -3.032056,2.374811 -1.146999,0.490999 -4.343891,1.229045 -2.950893,2.704044 -1.146998,0.163999 -4.179152,1.146063 -3.359153,2.949065 0.246,0.494 0.819269,2.70483 0.819269,3.52483 0,0.49 0.655763,0.98197 1.556762,0.73597 -0.981999,1.229 -1.556867,5.08009 1.39413,5.40809 1.064999,0.082 3.523033,0.24603 4.179032,0.65602 0.573999,0.164 2.293934,0.49005 2.048934,-0.90195 0.41,-0.326 1.96688,1.72087 2.62288,0.81988 0.490999,-0.984 2.048139,-2.70476 4.917136,-3.44276 1.064999,-0.326 1.394122,-2.29322 0.983122,-3.11322 1.637999,1.312 6.226949,6.72117 12.289943,0.82018 -3.112997,0.492 -4.09616,-1.63922 -5.079159,-3.11322 2.130997,-0.328 5.07919,4.91602 9.341186,2.45903 -2.293998,-0.328 -2.785974,-4.26189 -1.146976,-6.228885 0.982999,-1.145999 2.293819,2.6e-5 2.785818,0.656025 1.472999,1.803 2.047003,1.148953 2.059003,-0.562046 -0.035,-0.954999 -0.450012,-2.605036 -1.042012,-4.316034 -5.899994,1.228998 -7.32697,2.586169 -7.57297,5.371167 -4.589995,-3.112997 -2.683825,-7.005202 -1.768826,-8.7172 -1.233374,-0.334125 -2.247501,-0.493341 -3.1001,-0.513225 z M 53.465766,91.70308 c -0.407023,0.0015 -0.856478,0.0169 -1.353852,0.04791 0.618999,0.393999 2.628131,1.671873 2.721131,3.163871 0.423999,-0.121 2.45801,-0.736991 2.82701,-1.84999 -0.574875,-0.707 -1.345128,-1.37256 -4.194289,-1.361786 z m -3.706694,9.21486 c -0.971999,0.377 -1.968198,1.014 -2.951197,4.879 0.562999,-0.469 2.397054,-1.99184 3.847053,-1.62084 0.014,-0.441 -0.05586,-1.89316 -0.895856,-3.25816 z m 17.938776,7.92814 c -0.408999,0.164 -2.540964,0.73602 -2.621964,2.13102 0.737999,0.73599 1.721024,1.39296 5.65402,0.73596 -0.655999,-0.328 -2.786056,-1.39298 -3.032056,-2.86698 z m -11.663515,2.58627 c -0.357421,0.006 -0.738194,0.0443 -1.130194,0.12876 0.035,1.043 0.305839,2.19295 3.625836,4.39995 -0.255,-0.688 -1.084087,-2.91992 -0.255087,-4.16592 -0.30825,-0.12 -1.16829,-0.38201 -2.240555,-0.36279 z"
         sodipodi:nodetypes="scccccssccscccccccccccccscccccsccccsccccccsccccccccccssccccccscccccccccsscccsccccccccccccccccscssccsccsccccscccccccccccccccccccccsccccsccsccccscscccsccccccccccccccccsccccscccccsccssccss" /></g></g></svg>
