<?xml version="1.0" encoding="UTF-8" standalone="no"?>
<!-- Created with Inkscape (http://www.inkscape.org/) -->

<svg
   width="1367.2349"
   height="504.23776"
   viewBox="0 0 361.74756 133.4129"
   version="1.1"
   id="svg1"
   inkscape:export-filename="gallery.svg"
   inkscape:export-xdpi="96"
   inkscape:export-ydpi="96"
   sodipodi:docname="gallery_3_2.svg"
   xmlns:inkscape="http://www.inkscape.org/namespaces/inkscape"
   xmlns:sodipodi="http://sodipodi.sourceforge.net/DTD/sodipodi-0.dtd"
   xmlns="http://www.w3.org/2000/svg"
   xmlns:svg="http://www.w3.org/2000/svg">
  <sodipodi:namedview
     id="namedview1"
     pagecolor="#ffffff"
     bordercolor="#000000"
     borderopacity="0.25"
     inkscape:showpageshadow="2"
     inkscape:pageopacity="0.0"
     inkscape:pagecheckerboard="0"
     inkscape:deskcolor="#d1d1d1"
     inkscape:document-units="mm" />
  <defs
     id="defs1" />
  <g
     inkscape:label="Layer 1"
     inkscape:groupmode="layer"
     id="layer1"
     transform="translate(-20.190527,-65.585232)">
    <g
       id="g1"
       transform="translate(-1.5371877,8.9924158)">
      <g
         id="g2"
         transform="matrix(1.627496,0,0,1.627496,-35.089928,-1.1074926)"
         style="stroke-width:0.614441">
        <path
           d="M 69.160414,81.264445 V 80.589106 H 54.013526 v 0.675339 l 3.087264,0.578862 c 2.026017,0.385908 2.749594,0.820055 2.749594,4.968566 v 2.026017 c 0,2.653117 -0.385908,3.473172 -2.074255,3.85908 -1.398917,0.337669 -2.846072,0.482385 -4.244988,0.482385 -9.695938,0 -12.927918,-7.187537 -12.927918,-15.870466 0,-8.200545 4.003796,-14.326835 12.831441,-14.326835 5.595666,0 8.827645,1.736586 9.406507,4.148511 l 0.578862,2.315448 h 0.916531 v -6.946344 c -3.473171,-1.109485 -7.139297,-1.543631 -10.853662,-1.543631 -11.191331,0 -18.571822,6.705151 -18.571822,17.124667 0,11.336047 7.284014,17.02819 18.137676,17.02819 3.955557,0 8.489976,-0.916532 11.721955,-1.881302 l -0.04824,-6.41572 c -0.04824,-4.148511 0.289431,-4.437942 2.26721,-4.968566 z M 91.964303,94.433556 V 93.854694 L 89.745332,93.275832 C 88.008747,92.841685 87.5746,92.118108 87.5746,88.596697 V 78.128943 c 0,-4.244988 -1.688347,-7.669921 -7.187536,-7.669921 -2.218971,0 -4.19675,0.916531 -5.740382,2.026017 -1.109485,0.820054 -2.653117,2.411925 -2.653117,3.810841 0,0.916532 0.578862,1.205963 1.254201,1.205963 0.578862,0 1.350678,-0.241193 1.881301,-0.530624 l 0.09648,-0.241192 v -0.916532 c 0,-1.59187 0.627101,-3.135502 3.424934,-3.135502 2.89431,0 4.872088,1.92954 4.872088,5.161519 v 3.231979 c -7.862875,1.543632 -12.783202,2.942549 -12.783202,8.441738 0,3.328456 3.039025,5.499189 5.740381,5.499189 3.521411,0 5.885097,-2.604879 7.332252,-3.955557 h 0.04824 v 3.666126 l 0.289431,0.192954 z m -8.441737,-5.740382 c 0,1.543632 -1.688347,3.183741 -4.341465,3.183741 -2.074255,0 -4.196749,-1.350678 -4.196749,-3.666126 0,-2.363686 0.820054,-4.534419 8.538214,-5.692143 z m 20.777914,5.740382 v -0.578862 l -1.78482,-0.482385 c -1.68835,-0.434147 -1.92954,-0.723578 -1.92954,-4.244988 V 58.64059 l -0.28943,-0.192954 -7.911117,1.157724 v 0.578862 l 1.977778,0.434146 c 1.784825,0.385908 2.074256,0.627101 2.074256,4.148511 v 24.360442 c 0,3.52141 -0.241193,3.810841 -1.92954,4.244988 l -1.784825,0.482385 v 0.578862 z m 13.25267,0 v -0.578862 l -1.78482,-0.482385 c -1.68835,-0.434147 -1.92954,-0.723578 -1.92954,-4.244988 V 58.64059 l -0.28943,-0.192954 -7.91112,1.157724 v 0.578862 l 1.97778,0.434146 c 1.78483,0.385908 2.07426,0.627101 2.07426,4.148511 v 24.360442 c 0,3.52141 -0.2412,3.810841 -1.92954,4.244988 l -1.78483,0.482385 v 0.578862 z m 21.16379,-4.679135 -0.48239,-0.6271 c -1.15772,0.868293 -3.42493,2.026017 -6.60867,2.026017 -6.46396,0 -9.21356,-5.692143 -8.77941,-11.529001 h 15.67751 c 0.0482,-0.289431 0.0482,-0.627101 0.0482,-0.96477 0,-3.666126 -2.65312,-8.441738 -8.3935,-8.441738 -7.23577,0 -10.9019,6.898106 -10.9019,13.458541 0,7.139298 4.58266,11.336048 9.93713,11.336048 4.43794,0 6.65692,-2.315448 9.50299,-5.257997 z M 134.0378,76.006449 c 0,1.447155 -0.72358,2.026017 -4.29322,2.026017 h -6.89811 c 0.24119,-2.604879 2.26721,-5.836858 6.07805,-5.836858 3.23198,0 5.11328,2.122494 5.11328,3.810841 z m 24.10634,-2.653117 c 0,-1.640109 -1.35067,-2.942549 -3.08726,-2.942549 -2.26721,0 -4.05203,1.447155 -6.41572,4.293227 h -0.0482 v -3.85908 l -0.28943,-0.192954 -8.00759,1.157724 v 0.578862 l 1.97778,0.434146 c 1.78482,0.385908 2.46016,0.627101 2.46016,4.148511 v 12.156102 c 0,3.52141 -0.24119,3.810841 -1.92954,4.244988 l -1.78482,0.482385 v 0.578862 h 12.7832 v -0.578862 l -2.7496,-0.627101 c -1.68834,-0.385908 -2.17073,-0.578862 -2.17073,-4.100272 V 76.874742 c 0,-1.302439 1.4954,-2.846071 3.52141,-2.846071 1.35068,0 2.41193,0.771816 2.89431,1.784824 l 0.24119,0.09648 c 1.35068,0.04824 2.60488,-1.061247 2.60488,-2.55664 z M 182.154,71.857938 v -0.578862 h -8.73117 v 0.578862 l 1.78483,0.482385 c 1.49539,0.385908 2.17073,1.013009 0.67534,5.306235 l -2.89431,8.441737 c -0.57886,1.736586 -0.8683,2.460164 -1.01301,3.328457 h -0.0965 c -0.0965,-0.820055 -0.28943,-1.495394 -1.01301,-3.23198 l -3.66612,-8.538214 c -1.68835,-3.955557 -1.20596,-4.920327 0.19295,-5.306235 l 1.78483,-0.482385 V 71.279076 H 158.3724 v 0.578862 l 1.20597,0.434147 c 1.013,0.337669 1.10948,0.868293 2.65311,4.293226 l 7.7664,17.462337 c -1.49539,4.148511 -2.99079,7.476962 -5.20976,7.476962 -1.06124,0 -1.83306,-0.72357 -2.21897,-1.591866 l -0.24119,-0.09648 c -1.06125,0.04824 -2.21897,1.061246 -2.21897,2.556646 0,1.68835 1.49539,2.94255 3.28022,2.94255 3.18374,0 6.12629,-4.10028 8.48997,-10.564238 l 6.60868,-18.185914 c 1.30244,-3.52141 1.68834,-3.85908 2.65311,-4.293226 z"
           id="text2"
           style="-inkscape-font-specification:'LeMonde Livre';fill:#cd3529;stroke-width:0.92166;stroke-linecap:round"
           aria-label="Gallery" />
      </g>
      <g
         fill-rule="evenodd"
         clip-rule="evenodd"
         id="g46"
         transform="matrix(1.1002739,0,0,1.1002739,220.72929,18.51153)"
         style="stroke-width:3.11884">
        <path
           d="m 89.589,98.285 c -0.035,-0.955 -0.45,-2.605 -1.042,-4.316 -5.9,1.229 -7.327,2.586 -7.573,5.371 -4.59,-3.113 -2.684,-7.005 -1.769,-8.717 -9.867,-2.673 -5.688,5.85 -17.242,7.324 -0.082,-1.885 0.163,-5.408 -1.803,-5.408 -1.394,0 -1.803,1.801 -3.032,2.375 -1.147,0.491 -4.344,1.229 -2.951,2.704 -1.147,0.164 -4.179,1.146 -3.359,2.949 0.246,0.494 0.819,2.705 0.819,3.525 0,0.49 0.656,0.982 1.557,0.736 -0.982,1.229 -1.557,5.08 1.394,5.408 1.065,0.082 3.523,0.246 4.179,0.656 0.574,0.164 2.294,0.49 2.049,-0.902 0.41,-0.326 1.967,1.721 2.623,0.82 0.491,-0.984 2.048,-2.705 4.917,-3.443 1.065,-0.326 1.394,-2.293 0.983,-3.113 1.638,1.312 6.227,6.721 12.29,0.82 -3.113,0.492 -4.096,-1.639 -5.079,-3.113 2.131,-0.328 5.079,4.916 9.341,2.459 -2.294,-0.328 -2.786,-4.262 -1.147,-6.229 0.983,-1.146 2.294,0 2.786,0.656 1.473,1.803 2.047,1.149 2.059,-0.562 z"
           fill="#cc222d"
           id="path34"
           style="fill:#cd3529;fill-opacity:1;stroke-width:3.11884" />
        <path
           d="m 64.913,81.64 c 1.147,-2.786 9.177,-1.639 14.421,-8.849 -5.899,-0.656 -6.719,-7.047 -16.552,-9.669 0.328,-0.819 0.163,-6.392 0.163,-6.392 0.493,0 2.95,-0.983 3.606,-1.64 2.131,-1.475 -1.434,-2.99 -2.048,-3.933 -1.23,-1.558 -2.049,0.655 -2.212,1.476 -0.165,-0.984 -0.165,-3.771 -1.803,-3.771 -2.868,0.821 -3.934,-1.31 -4.752,-0.326 0,0 -0.983,1.802 -0.492,3.113 -0.819,0 -5.081,0.328 -4.588,1.966 0.327,0.983 0.163,4.425 0.163,4.425 -0.163,0.491 0.984,1.803 2.786,1.967 -1.311,0.983 -3.276,2.458 -2.622,3.114 0.983,0.491 2.13,2.131 2.293,2.785 0,0 1.148,1.147 1.803,0.492 0.328,-0.655 2.131,-1.311 3.442,0 -2.295,0.656 -6.393,1.803 -5.572,6.228 1.639,-3.278 6.555,0.492 9.996,0.165 -2.458,0.491 -2.294,2.623 -6.227,1.802 0.983,1.803 1.639,3.606 7.539,3.77 -0.165,0.491 0.328,2.786 0.656,3.277 z m 38.675,21.305 c 0.738,-1.803 7.049,-1.311 7.131,-12.865 3.852,3.031 12.865,21.224 23.189,21.224 1.803,0 5.244,-0.82 5.244,-4.59 0,-8.193 -19.994,-0.982 -16.389,-16.225 2.785,9.834 7.211,3.769 9.178,5.409 -8.357,-12.292 -9.996,-8.85 -8.521,-26.714 0.328,-2.95 -3.277,-8.359 -5.9,-9.178 1.146,-0.655 4.754,-1.802 7.211,1.146 -1.146,-4.097 -4.916,-16.715 11.309,-16.88 -1.475,0.328 -6.719,2.787 -6.719,7.703 0,2.458 3.275,4.917 3.275,8.194 0,1.922 -1.164,4.265 -2.252,7.125 2.252,-0.405 5.695,-4.994 5.039,-6.797 6.721,9.177 -7.375,11.308 -6.637,18.505 0.648,3.861 2.523,7.24 4.846,10.291 0.645,-2.41 0.316,-7.328 -1.158,-8.803 2.949,2.294 7.553,4.423 5.988,14.339 2.295,2.41 4.543,4.639 6.189,6.803 0.605,-1.475 0.277,-7.047 -0.705,-8.686 3.604,4.426 5.244,10.653 2.949,15.733 -0.984,2.295 -5.408,7.703 -12.455,7.703 -1.477,0 -6.064,-1.146 -8.523,-1.146 0.82,0.49 1.148,3.439 0.82,5.244 0.656,-0.984 2.949,-3.279 5.08,-3.279 0.818,0 3.277,2.131 3.277,4.426 1.477,-0.492 5.408,-3.115 5.408,-5.736 0.984,1.967 1.311,7.047 -0.818,9.014 0.656,0 3.77,-1.639 4.096,-2.459 0.328,1.967 -0.326,5.082 -3.113,6.883 0.656,0 3.279,0.166 4.426,-0.818 -0.49,1.146 -2.131,6.719 -5.9,7.703 -1.475,0.656 1.475,8.85 -4.588,8.521 1.146,1.477 1.311,4.426 -0.492,4.916 -1.148,0.164 -3.441,0.656 -3.77,1.148 -0.656,0.656 -2.457,0.49 -2.457,-0.656 -0.656,0.41 -2.377,4.344 -3.854,2.377 -0.408,-0.82 -1.514,-2.336 -3.031,-2.949 -0.982,-0.656 -1.311,-3.359 1.146,-3.854 1.312,-0.326 0.166,-3.113 -0.818,-4.096 -0.818,-1.146 0.492,-3.934 2.785,-2.785 0.984,0.654 1.969,1.309 2.787,1.309 1.311,0 3.441,-3.275 3.441,-6.881 0,-1.477 -1.146,-2.459 -2.457,-2.459 -2.131,0 -5.082,6.883 -10.326,4.262 0.328,2.293 0.164,8.686 -6.391,12.125 1.475,-2.129 -0.656,-4.26 1.475,-6.881 -2.131,0.984 -5.9,6.227 -5.736,7.703 -4.098,-4.262 2.949,-13.932 1.967,-16.389 -1.312,-1.641 -2.295,-4.59 -2.295,-5.9 0,-1.967 3.605,-10.488 3.605,-15.078 10e-4,-2.458 -2.294,-5.897 -6.556,-7.702 z"
           fill="#cd3529"
           id="path36"
           style="stroke-width:3.11884" />
        <path
           d="m 70.156,143.426 c 0.206,0.82 2.623,0 3.278,-0.328 -0.82,0.656 -0.492,3.115 0.491,3.277 0.984,0.164 2.458,0.818 2.786,1.312 0.328,0.49 3.769,1.311 3.934,-1.641 0.982,0.656 2.458,1.969 3.441,1.146 0,0 2.459,-1.309 3.934,-0.98 0.819,0.326 3.114,-1.312 -0.164,-3.443 0,0 0.819,-2.129 1.64,-2.623 0.982,7.869 6.063,5.9 8.358,4.918 -1.967,0 -2.95,-2.295 -2.95,-2.949 5.571,2.457 8.03,0.49 9.341,-0.818 -1.639,0.49 -4.096,-2.297 -4.096,-3.77 3.439,0.49 4.916,-1.969 4.424,-4.59 -1.967,2.459 -3.932,-0.656 -4.098,-2.131 4.918,-1.967 5.082,-5.244 4.754,-7.867 -1.312,2.787 -5.08,1.967 -5.08,-0.164 0,-4.424 5.408,-5.08 7.332,-4.74 0.693,-2.426 1.271,-4.895 1.271,-6.73 0,-1.557 -0.92,-3.512 -2.68,-5.189 -0.68,0.764 -3.793,2.895 -5.76,2.895 -1.803,0 -4.59,-1.475 -8.195,-1.475 -2.459,0 -8.85,2.457 -7.867,9.504 -3.605,-0.818 -10.816,1.639 -7.703,7.867 2.785,-7.375 6.556,2.131 9.669,-1.475 0.982,2.623 3.604,12.455 -4.425,12.455 -3.77,0 -2.131,-4.26 -4.425,-4.26 -0.819,-0.166 -2.95,0.818 -2.786,2.457 -1.147,0 -4.425,1.312 -3.769,3.443 -0.821,0.49 -3.688,2.785 -2.5,3.398 0.371,0.247 1.681,1.804 1.845,2.501 z m -2.458,-34.58 c -0.409,0.164 -2.541,0.736 -2.622,2.131 0.738,0.736 1.721,1.393 5.654,0.736 -0.656,-0.328 -2.786,-1.393 -3.032,-2.867 z m -9.423,2.949 c -0.411,-0.16 -1.803,-0.572 -3.371,-0.234 0.035,1.043 0.306,2.193 3.626,4.4 -0.255,-0.688 -1.084,-2.92 -0.255,-4.166 z m -7.62,-7.619 c 0.014,-0.441 -0.056,-1.893 -0.896,-3.258 -0.972,0.377 -1.968,1.014 -2.951,4.879 0.563,-0.469 2.397,-1.992 3.847,-1.621 z m 4.178,-9.261 c 0.424,-0.121 2.458,-0.737 2.827,-1.85 -0.657,-0.808 -1.569,-1.562 -5.548,-1.314 0.619,0.394 2.628,1.672 2.721,3.164 z M 52.645,66.879 c -0.154,-0.414 -0.771,-1.727 -2.067,-2.673 -0.754,0.721 -1.433,1.687 -0.874,5.635 0.343,-0.648 1.461,-2.752 2.941,-2.962 z m -2.704,-9.342 c 0.101,-0.429 -0.024,-2.119 -0.239,-3.369 -1.028,0.181 -2.13,0.609 -3.85,4.206 0.644,-0.348 2.74,-1.482 4.089,-0.837 z m 7.125,-9.89 c 0.837,0.643 2.232,0.724 3.435,0.505 0.1,-1.039 -0.02,-2.214 -3.028,-4.832 0.163,0.715 0.574,3.201 -0.407,4.327 z m 7.825,2.746 c 0.554,0.887 1.536,1.584 2.262,1.984 0.646,-0.819 1.529,-3.514 -1.246,-5.128 0.315,1.532 -0.012,2.556 -1.016,3.144 z"
           fill="#cd3529"
           id="path38"
           style="stroke-width:3.11884" />
        <path
           d="m 73.598,133.594 c -0.163,-1.312 0.82,-2.541 2.284,-2.92 -0.99,-0.326 -4.987,-0.688 -6.855,2.625 0.732,-0.004 3.67,-1.264 4.571,0.295 z m -4.043,10.515 c -0.148,-0.416 -1.038,-2.037 -1.99,-2.455 -0.765,0.709 -2.326,2.428 -0.745,5.787 0.352,-0.644 1.251,-3.142 2.735,-3.332 z m 6.649,4.377 c -0.348,-0.271 -1.531,-1.09 -2.863,-1.178 -0.265,1.008 -0.972,2.92 2.34,5.455 -0.047,-0.73 -0.628,-3.322 0.523,-4.277 z m 10.871,-1.07 c -0.44,0.039 -2.004,0.107 -2.917,1.203 0.493,0.918 1.731,2.756 5.452,2.283 -0.532,-0.504 -2.725,-2.002 -2.535,-3.486 z m 46.216,3.361 c -0.439,0.037 -2.004,0.105 -2.916,1.201 1.484,3.328 4.434,2.346 5.779,0.234 -0.361,0.145 -3.72,0.638 -2.863,-1.435 z M 139,142.826 c -0.01,0.928 -0.832,1.992 -2.014,2.592 4.215,2.023 5.605,-1.178 5.049,-3.619 -0.152,0.359 -1.939,2.486 -3.035,1.027 z m -15.992,9.834 c -0.229,-0.379 -0.969,-1.758 -2.354,-2.1 -2.35,2.785 -0.18,5.014 2.307,5.305 -0.289,-0.263 -2.193,-3.072 0.047,-3.205 z m -1.395,-7.865 c 0.537,-0.428 -0.215,-2.148 -1.471,-2.826 -2.705,0.434 -3.688,3.588 -0.965,4.648 -0.306,-0.609 0.235,-2.252 2.436,-1.822 z M 71.304,56.402 c 0.819,-0.984 3.441,-4.589 6.063,-4.589 3.278,0 3.278,6.719 8.194,6.719 1.229,0 1.557,-0.696 2.233,-1.392 -0.758,0.41 -3.38,1.885 -5.837,-5.327 -1.64,-1.147 -2.624,-5.08 1.801,-5.08 l 5.409,-0.165 c 0.654,-1.966 7.21,-5.9 12.292,-5.735 0.328,-2.459 3.277,-7.867 10.816,-5.735 0,0 -4.262,2.622 -4.262,3.932 2.949,-1.639 8.193,0.328 10.326,-3.932 0.654,1.801 0.164,5.244 -5.736,7.702 3.932,-0.491 9.832,-0.164 13.602,-2.131 -0.162,4.753 -9.67,5.082 -9.832,7.375 -0.166,1.803 0.818,4.916 2.949,4.916 0.656,0 2.295,-0.163 2.623,-1.31 1.639,3.113 -1.803,8.194 -7.047,6.556 3.113,3.604 -0.166,13.274 7.209,9.996 -1.146,3.114 -3.604,7.047 -8.686,4.753 0,6.228 6.721,6.063 6.721,13.275 0,1.803 -1.967,5.9 -4.098,7.703 0,-3.605 -4.998,-7.293 -7.047,-5.246 0,13.932 -9.506,10.489 -9.506,16.063 -1.311,-2.131 0.982,-6.066 0.492,-7.213 -4.917,8.031 -10.817,5.9 -10.817,7.375 0,-2.949 1.966,-4.426 1.966,-5.9 0,-2.457 -2.131,-6.227 -1.147,-7.375 -1.967,1.968 -8.522,1.147 -9.833,4.917 -0.493,-1.148 -1.803,-3.606 2.458,-8.031 -4.261,2.458 -8.441,-2.704 -11.882,2.868 -0.656,-3.934 1.393,-6.31 4.506,-9.096 -2.95,0.656 -5.736,0 -6.227,1.803 0.655,-3.606 4.261,-4.26 6.392,-5.572 2.131,-1.147 3.441,-2.541 5.572,-4.998 1.311,-1.803 4.917,-4.016 12.947,-4.18 0.329,0.083 1.064,-0.82 1.064,-1.311 -0.164,0.328 -2.704,2.376 -4.507,-0.165 -0.738,0.574 -2.728,2.294 -5.489,1.065 -0.656,-2.294 2.867,-1.72 1.474,-5.982 -8.849,0 -7.292,-6.31 -8.849,-6.31 -1.23,0 -3.032,1.884 -5.162,1.393 -0.573,-0.079 -2.046,-0.407 -1.145,-1.636 z M 101.787,45.75 c -4.754,-0.82 -4.426,1.311 -5.245,2.13 5.737,1.147 4.589,-2.13 5.245,-2.13 z M 94.74,60.991 c -1.64,-2.131 -4.262,-0.328 -4.753,-0.165 2.786,4.262 3.441,0 4.753,0.165 z"
           fill="#cd3529"
           id="path40"
           style="stroke-width:3.11884" />
      </g>
    </g>
  </g>
</svg>
