<?xml version="1.0" encoding="UTF-8" standalone="no"?>
<!-- Created with Inkscape (http://www.inkscape.org/) -->

<svg
   width="1387.0908"
   height="504.23776"
   viewBox="0 0 367.00111 133.4129"
   version="1.1"
   id="svg1"
   inkscape:export-filename="managers_3_2.svg"
   inkscape:export-xdpi="96"
   inkscape:export-ydpi="96"
   sodipodi:docname="managers_3_2.svg"
   xmlns:inkscape="http://www.inkscape.org/namespaces/inkscape"
   xmlns:sodipodi="http://sodipodi.sourceforge.net/DTD/sodipodi-0.dtd"
   xmlns="http://www.w3.org/2000/svg"
   xmlns:svg="http://www.w3.org/2000/svg">
  <sodipodi:namedview
     id="namedview1"
     pagecolor="#ffffff"
     bordercolor="#000000"
     borderopacity="0.25"
     inkscape:showpageshadow="2"
     inkscape:pageopacity="0.0"
     inkscape:pagecheckerboard="0"
     inkscape:deskcolor="#d1d1d1"
     inkscape:document-units="mm" />
  <defs
     id="defs1" />
  <g
     inkscape:label="Layer 1"
     inkscape:groupmode="layer"
     id="layer1"
     transform="translate(-14.937,-65.585232)">
    <g
       id="g1"
       transform="translate(-1.5371877,8.9924158)">
      <g
         id="g4">
        <g
           id="g2"
           transform="matrix(1.627496,0,0,1.627496,-45.903004,103.628)"
           style="stroke-width:0.614441">
          <g
             id="g3"
             transform="matrix(0.92202834,0,0,0.92202834,2.540561,6.502477)"
             style="stroke-width:0.666401">
            <g
               id="text1"
               style="font-size:63.1606px;font-family:'LeMonde Livre';-inkscape-font-specification:'LeMonde Livre';letter-spacing:-2.5102px;fill:#ad2c22;stroke-width:0.999602;stroke-linecap:round"
               aria-label="&#10;GERS">
              <path
                 d="M 83.656859,27.316826 V 26.432578 H 63.824431 v 0.884248 l 4.042278,0.757928 c 2.652745,0.505284 3.600154,1.07373 3.600154,6.505541 v 2.652745 c 0,3.473833 -0.505284,4.547564 -2.715905,5.052848 -1.831658,0.442124 -3.726476,0.631606 -5.558133,0.631606 -12.69528,0 -16.927041,-9.410929 -16.927041,-20.779837 0,-10.737301 5.24233,-18.7586975 16.80072,-18.7586975 7.326629,0 11.558389,2.2737815 12.316316,5.4318115 l 0.757928,3.031709 h 1.200051 V 2.7473535 C 72.793236,1.2946597 67.99303,0.72621432 63.129664,0.72621432 c -14.653259,0 -24.31683,8.77932318 -24.31683,22.42201268 0,14.842741 9.53725,22.295691 23.748385,22.295691 5.179169,0 11.116265,-1.200051 15.348025,-2.463263 l -0.06316,-8.40036 c -0.06316,-5.431811 0.378963,-5.810775 2.968548,-6.505541 z"
                 id="path1" />
              <path
                 d="m 116.76924,35.717186 -1.07373,-0.252642 -1.38954,2.905387 c -1.26321,2.589585 -3.09487,3.600154 -9.60041,3.600154 h -4.863365 c -2.589585,0 -3.473833,-0.568445 -3.473833,-6.505541 V 23.337709 h 6.695028 c 5.81077,0 6.63186,0.189481 7.26346,2.400102 l 0.75793,2.652746 h 0.94741 V 16.011079 h -0.94741 l -0.69477,2.336942 c -0.6316,2.210621 -1.51585,2.400103 -7.32662,2.400103 H 96.368362 V 4.5158502 h 6.758188 c 7.07398,0 8.46352,0.631606 9.09512,2.9685482 l 0.75793,2.8422266 h 1.01057 V 1.9262657 H 84.178366 v 0.8842484 l 2.779067,0.7579272 c 2.589584,0.6947666 2.968548,1.0737301 2.968548,6.5055417 v 26.33797 c 0,5.431811 -0.378964,5.810775 -2.968548,6.505541 l -2.779067,0.757927 v 0.884249 h 30.696054 z m 44.03921,8.842484 v -0.884249 l -2.0843,-0.694766 c -1.70533,-0.568446 -3.34751,-2.400103 -6.94766,-6.568702 -3.28435,-3.789636 -7.32663,-8.905645 -10.67414,-13.074244 5.74761,-1.326373 11.30574,-4.800206 11.30574,-10.989945 0,-9.0951257 -8.21087,-10.4214983 -15.47434,-10.4214983 h -17.43233 v 0.8842484 l 2.77907,0.7579272 c 2.58958,0.6947666 2.96855,1.0737301 2.96855,6.5055417 v 26.33797 c 0,5.431811 -0.37897,5.810775 -2.96855,6.505541 l -2.77907,0.757927 v 0.884249 h 17.93761 v -0.884249 l -2.77906,-0.757927 c -2.58959,-0.694766 -2.96855,-1.07373 -2.96855,-6.505541 V 4.1368867 h 2.90538 c 6.31606,0 10.80047,1.8316573 10.80047,9.3477683 0,6.884506 -5.24233,8.968805 -10.61098,8.968805 h -1.95798 c 3.91596,5.368651 13.45321,17.053362 17.43232,22.16937 z m 25.97516,-12.69528 c 0,-6.126579 -4.61073,-9.47409 -9.15829,-11.55839 l -4.10544,-1.894818 c -3.66331,-1.705336 -7.20031,-4.042278 -7.20031,-7.768754 0,-4.4212416 3.8528,-6.9476655 8.0214,-6.9476655 5.49497,0 7.89507,2.6527451 8.46352,5.0528479 l 0.82109,3.3475116 h 1.13689 V 3.0631565 c -3.8528,-1.8316574 -8.27404,-2.0211392 -9.91622,-2.0211392 -6.94766,0 -13.57953,4.4844025 -13.57953,11.8741927 0,5.684454 4.35809,9.158287 8.96881,11.305747 l 4.1686,1.957979 c 3.41067,1.642175 6.94766,4.042278 6.94766,8.400359 0,5.494972 -4.61072,8.210878 -9.53725,8.210878 -5.36865,0 -8.33719,-2.463263 -9.53725,-5.24233 l -1.45269,-3.410672 -1.13689,0.315803 1.45269,8.968805 c 2.77907,1.326373 6.88451,2.14746 10.1057,2.14746 7.83191,0 15.53751,-4.610723 15.53751,-13.705849 z"
                 id="path2" />
            </g>
            <path
               d="m 80.608544,-31.905469 v -0.678817 l -10.279223,-0.04849 -8.533694,21.43121 c -0.63033,1.6000681 -1.697041,4.0244131 -1.842502,4.9941511 h -0.09697 c -0.09697,-1.1636856 -1.115199,-3.6365175 -1.600068,-4.9456641 l -8.388233,-21.479697 -11.055014,0.04849 v 0.678817 l 2.278885,0.581843 c 1.987962,0.533356 2.860727,0.872764 2.763753,4.99415 l -0.339408,15.855217 c -0.145461,7.8063909 -0.387896,8.8246158 -2.278885,9.3579717 l -2.133423,0.58184277 v 0.67881661 h 11.87929 V -0.53444453 L 48.60719,-1.1647742 C 46.522253,-1.746617 45.988898,-2.7648419 46.182845,-12.898604 l 0.193948,-11.151987 c 0.04849,-2.181911 0.04849,-3.975926 0,-4.412308 h 0.09697 c 0.339408,1.115199 1.018224,2.715266 1.600067,4.21836 L 57.965158,0.14437208 H 59.80766 L 69.650505,-24.777895 c 0.63033,-1.600067 1.260659,-3.297109 1.600068,-4.21836 h 0.09697 c 0,1.357633 0,2.666779 0.04849,4.412308 l 0.436382,18.4735089 c 0.09697,4.1698735 -0.290921,4.4607949 -2.278884,4.9941508 l -2.133424,0.58184277 V 0.14437208 H 81.093413 V -0.53444453 L 78.95999,-1.1162873 C 76.972027,-1.6496432 76.778079,-1.9405646 76.681105,-6.1104381 L 76.196236,-26.329476 c -0.09697,-4.169873 0.290922,-4.460794 2.278885,-4.99415 z M 115.82247,0.14437208 v -0.67881661 l -1.35764,-0.48486897 c -1.89099,-0.6788166 -2.37585,-1.0667118 -3.92744,-5.0911246 L 99.96725,-33.45705 H 97.591392 L 86.584866,-7.1771499 c -2.084937,4.9456639 -2.472832,5.4790198 -4.363821,6.1578364 l -1.357634,0.48486897 v 0.67881661 h 11.248961 v -0.67881661 l -2.03645,-0.58184277 c -2.18191,-0.6303297 -2.569805,-1.4061201 -0.242434,-7.321522 l 1.260659,-3.2001357 h 12.073243 l 2.03645,5.5275069 c 1.4546,3.8789521 0.96973,4.4607949 -1.01823,4.9941508 l -2.13342,0.58184277 V 0.14437208 Z M 102.44008,-13.674395 H 91.918425 l 3.927439,-9.891327 c 0,0 1.357633,-3.491057 1.503093,-4.169874 h 0.09697 c 0.145461,0.775791 1.357633,4.169874 1.357633,4.169874 z m 49.61457,-18.231074 v -0.678817 h -12.65508 v 0.678817 l 2.86072,0.63033 c 2.13343,0.484869 2.76376,1.357633 2.76376,11.73383 v 8.873102 c 0,0.581843 0.0485,2.2788846 0.0485,3.4910571 h -0.097 c -0.38789,-1.0667118 -1.60007,-2.6667795 -2.86073,-4.2668471 l -16.43706,-21.188776 -10.08527,0.04849 v 0.678817 l 2.61829,0.581843 c 1.98796,0.436382 2.76376,0.824277 2.76376,4.99415 v 15.855217 c 0,7.8063909 -0.33941,8.8246158 -2.2304,9.3579717 l -2.13343,0.58184277 v 0.67881661 h 12.65509 v -0.67881661 l -2.86073,-0.63032967 c -2.13343,-0.484869 -2.76376,-1.3576332 -2.76376,-11.7338298 v -11.345935 c 0,-0.921251 -0.0485,-2.327371 -0.0485,-2.909214 h 0.097 c 0.43638,0.969738 1.40612,2.181911 2.86073,4.024413 l 18.8614,23.85555488 h 2.27889 V -21.965654 c 0,-7.806391 0.33941,-8.824616 2.23039,-9.357972 z m 34.7291,32.04984108 v -0.67881661 l -1.35763,-0.48486897 c -1.89099,-0.6788166 -2.37586,-1.0667118 -3.92744,-5.0911246 L 170.92853,-33.45705 h -2.37585 l -11.00653,26.2799001 c -2.08494,4.9456639 -2.47283,5.4790198 -4.36382,6.1578364 l -1.35763,0.48486897 v 0.67881661 h 11.24896 v -0.67881661 l -2.03645,-0.58184277 c -2.18191,-0.6303297 -2.56981,-1.4061201 -0.24244,-7.321522 l 1.26066,-3.2001357 h 12.07324 l 2.03645,5.5275069 c 1.45461,3.8789521 0.96974,4.4607949 -1.01822,4.9941508 l -2.13343,0.58184277 V 0.14437208 Z M 173.40137,-13.674395 h -10.52166 l 3.92744,-9.891327 c 0,0 1.35763,-3.491057 1.50309,-4.169874 h 0.097 c 0.14546,0.775791 1.35763,4.169874 1.35763,4.169874 z"
               id="text4"
               style="-inkscape-font-specification:'LeMonde Livre';fill:#cd3529;stroke-width:0.999604;stroke-linecap:round"
               aria-label="MANA" />
          </g>
        </g>
        <g
           fill-rule="evenodd"
           clip-rule="evenodd"
           id="g46"
           transform="matrix(1.1002739,0,0,1.1002739,220.72929,18.51153)"
           style="stroke-width:3.11884">
          <path
             d="m 89.589,98.285 c -0.035,-0.955 -0.45,-2.605 -1.042,-4.316 -5.9,1.229 -7.327,2.586 -7.573,5.371 -4.59,-3.113 -2.684,-7.005 -1.769,-8.717 -9.867,-2.673 -5.688,5.85 -17.242,7.324 -0.082,-1.885 0.163,-5.408 -1.803,-5.408 -1.394,0 -1.803,1.801 -3.032,2.375 -1.147,0.491 -4.344,1.229 -2.951,2.704 -1.147,0.164 -4.179,1.146 -3.359,2.949 0.246,0.494 0.819,2.705 0.819,3.525 0,0.49 0.656,0.982 1.557,0.736 -0.982,1.229 -1.557,5.08 1.394,5.408 1.065,0.082 3.523,0.246 4.179,0.656 0.574,0.164 2.294,0.49 2.049,-0.902 0.41,-0.326 1.967,1.721 2.623,0.82 0.491,-0.984 2.048,-2.705 4.917,-3.443 1.065,-0.326 1.394,-2.293 0.983,-3.113 1.638,1.312 6.227,6.721 12.29,0.82 -3.113,0.492 -4.096,-1.639 -5.079,-3.113 2.131,-0.328 5.079,4.916 9.341,2.459 -2.294,-0.328 -2.786,-4.262 -1.147,-6.229 0.983,-1.146 2.294,0 2.786,0.656 1.473,1.803 2.047,1.149 2.059,-0.562 z"
             fill="#cc222d"
             id="path34"
             style="fill:#cd3529;fill-opacity:1;stroke-width:3.11884" />
          <path
             d="m 64.913,81.64 c 1.147,-2.786 9.177,-1.639 14.421,-8.849 -5.899,-0.656 -6.719,-7.047 -16.552,-9.669 0.328,-0.819 0.163,-6.392 0.163,-6.392 0.493,0 2.95,-0.983 3.606,-1.64 2.131,-1.475 -1.434,-2.99 -2.048,-3.933 -1.23,-1.558 -2.049,0.655 -2.212,1.476 -0.165,-0.984 -0.165,-3.771 -1.803,-3.771 -2.868,0.821 -3.934,-1.31 -4.752,-0.326 0,0 -0.983,1.802 -0.492,3.113 -0.819,0 -5.081,0.328 -4.588,1.966 0.327,0.983 0.163,4.425 0.163,4.425 -0.163,0.491 0.984,1.803 2.786,1.967 -1.311,0.983 -3.276,2.458 -2.622,3.114 0.983,0.491 2.13,2.131 2.293,2.785 0,0 1.148,1.147 1.803,0.492 0.328,-0.655 2.131,-1.311 3.442,0 -2.295,0.656 -6.393,1.803 -5.572,6.228 1.639,-3.278 6.555,0.492 9.996,0.165 -2.458,0.491 -2.294,2.623 -6.227,1.802 0.983,1.803 1.639,3.606 7.539,3.77 -0.165,0.491 0.328,2.786 0.656,3.277 z m 38.675,21.305 c 0.738,-1.803 7.049,-1.311 7.131,-12.865 3.852,3.031 12.865,21.224 23.189,21.224 1.803,0 5.244,-0.82 5.244,-4.59 0,-8.193 -19.994,-0.982 -16.389,-16.225 2.785,9.834 7.211,3.769 9.178,5.409 -8.357,-12.292 -9.996,-8.85 -8.521,-26.714 0.328,-2.95 -3.277,-8.359 -5.9,-9.178 1.146,-0.655 4.754,-1.802 7.211,1.146 -1.146,-4.097 -4.916,-16.715 11.309,-16.88 -1.475,0.328 -6.719,2.787 -6.719,7.703 0,2.458 3.275,4.917 3.275,8.194 0,1.922 -1.164,4.265 -2.252,7.125 2.252,-0.405 5.695,-4.994 5.039,-6.797 6.721,9.177 -7.375,11.308 -6.637,18.505 0.648,3.861 2.523,7.24 4.846,10.291 0.645,-2.41 0.316,-7.328 -1.158,-8.803 2.949,2.294 7.553,4.423 5.988,14.339 2.295,2.41 4.543,4.639 6.189,6.803 0.605,-1.475 0.277,-7.047 -0.705,-8.686 3.604,4.426 5.244,10.653 2.949,15.733 -0.984,2.295 -5.408,7.703 -12.455,7.703 -1.477,0 -6.064,-1.146 -8.523,-1.146 0.82,0.49 1.148,3.439 0.82,5.244 0.656,-0.984 2.949,-3.279 5.08,-3.279 0.818,0 3.277,2.131 3.277,4.426 1.477,-0.492 5.408,-3.115 5.408,-5.736 0.984,1.967 1.311,7.047 -0.818,9.014 0.656,0 3.77,-1.639 4.096,-2.459 0.328,1.967 -0.326,5.082 -3.113,6.883 0.656,0 3.279,0.166 4.426,-0.818 -0.49,1.146 -2.131,6.719 -5.9,7.703 -1.475,0.656 1.475,8.85 -4.588,8.521 1.146,1.477 1.311,4.426 -0.492,4.916 -1.148,0.164 -3.441,0.656 -3.77,1.148 -0.656,0.656 -2.457,0.49 -2.457,-0.656 -0.656,0.41 -2.377,4.344 -3.854,2.377 -0.408,-0.82 -1.514,-2.336 -3.031,-2.949 -0.982,-0.656 -1.311,-3.359 1.146,-3.854 1.312,-0.326 0.166,-3.113 -0.818,-4.096 -0.818,-1.146 0.492,-3.934 2.785,-2.785 0.984,0.654 1.969,1.309 2.787,1.309 1.311,0 3.441,-3.275 3.441,-6.881 0,-1.477 -1.146,-2.459 -2.457,-2.459 -2.131,0 -5.082,6.883 -10.326,4.262 0.328,2.293 0.164,8.686 -6.391,12.125 1.475,-2.129 -0.656,-4.26 1.475,-6.881 -2.131,0.984 -5.9,6.227 -5.736,7.703 -4.098,-4.262 2.949,-13.932 1.967,-16.389 -1.312,-1.641 -2.295,-4.59 -2.295,-5.9 0,-1.967 3.605,-10.488 3.605,-15.078 10e-4,-2.458 -2.294,-5.897 -6.556,-7.702 z"
             fill="#cd3529"
             id="path36"
             style="stroke-width:3.11884" />
          <path
             d="m 70.156,143.426 c 0.206,0.82 2.623,0 3.278,-0.328 -0.82,0.656 -0.492,3.115 0.491,3.277 0.984,0.164 2.458,0.818 2.786,1.312 0.328,0.49 3.769,1.311 3.934,-1.641 0.982,0.656 2.458,1.969 3.441,1.146 0,0 2.459,-1.309 3.934,-0.98 0.819,0.326 3.114,-1.312 -0.164,-3.443 0,0 0.819,-2.129 1.64,-2.623 0.982,7.869 6.063,5.9 8.358,4.918 -1.967,0 -2.95,-2.295 -2.95,-2.949 5.571,2.457 8.03,0.49 9.341,-0.818 -1.639,0.49 -4.096,-2.297 -4.096,-3.77 3.439,0.49 4.916,-1.969 4.424,-4.59 -1.967,2.459 -3.932,-0.656 -4.098,-2.131 4.918,-1.967 5.082,-5.244 4.754,-7.867 -1.312,2.787 -5.08,1.967 -5.08,-0.164 0,-4.424 5.408,-5.08 7.332,-4.74 0.693,-2.426 1.271,-4.895 1.271,-6.73 0,-1.557 -0.92,-3.512 -2.68,-5.189 -0.68,0.764 -3.793,2.895 -5.76,2.895 -1.803,0 -4.59,-1.475 -8.195,-1.475 -2.459,0 -8.85,2.457 -7.867,9.504 -3.605,-0.818 -10.816,1.639 -7.703,7.867 2.785,-7.375 6.556,2.131 9.669,-1.475 0.982,2.623 3.604,12.455 -4.425,12.455 -3.77,0 -2.131,-4.26 -4.425,-4.26 -0.819,-0.166 -2.95,0.818 -2.786,2.457 -1.147,0 -4.425,1.312 -3.769,3.443 -0.821,0.49 -3.688,2.785 -2.5,3.398 0.371,0.247 1.681,1.804 1.845,2.501 z m -2.458,-34.58 c -0.409,0.164 -2.541,0.736 -2.622,2.131 0.738,0.736 1.721,1.393 5.654,0.736 -0.656,-0.328 -2.786,-1.393 -3.032,-2.867 z m -9.423,2.949 c -0.411,-0.16 -1.803,-0.572 -3.371,-0.234 0.035,1.043 0.306,2.193 3.626,4.4 -0.255,-0.688 -1.084,-2.92 -0.255,-4.166 z m -7.62,-7.619 c 0.014,-0.441 -0.056,-1.893 -0.896,-3.258 -0.972,0.377 -1.968,1.014 -2.951,4.879 0.563,-0.469 2.397,-1.992 3.847,-1.621 z m 4.178,-9.261 c 0.424,-0.121 2.458,-0.737 2.827,-1.85 -0.657,-0.808 -1.569,-1.562 -5.548,-1.314 0.619,0.394 2.628,1.672 2.721,3.164 z M 52.645,66.879 c -0.154,-0.414 -0.771,-1.727 -2.067,-2.673 -0.754,0.721 -1.433,1.687 -0.874,5.635 0.343,-0.648 1.461,-2.752 2.941,-2.962 z m -2.704,-9.342 c 0.101,-0.429 -0.024,-2.119 -0.239,-3.369 -1.028,0.181 -2.13,0.609 -3.85,4.206 0.644,-0.348 2.74,-1.482 4.089,-0.837 z m 7.125,-9.89 c 0.837,0.643 2.232,0.724 3.435,0.505 0.1,-1.039 -0.02,-2.214 -3.028,-4.832 0.163,0.715 0.574,3.201 -0.407,4.327 z m 7.825,2.746 c 0.554,0.887 1.536,1.584 2.262,1.984 0.646,-0.819 1.529,-3.514 -1.246,-5.128 0.315,1.532 -0.012,2.556 -1.016,3.144 z"
             fill="#cd3529"
             id="path38"
             style="stroke-width:3.11884" />
          <path
             d="m 73.598,133.594 c -0.163,-1.312 0.82,-2.541 2.284,-2.92 -0.99,-0.326 -4.987,-0.688 -6.855,2.625 0.732,-0.004 3.67,-1.264 4.571,0.295 z m -4.043,10.515 c -0.148,-0.416 -1.038,-2.037 -1.99,-2.455 -0.765,0.709 -2.326,2.428 -0.745,5.787 0.352,-0.644 1.251,-3.142 2.735,-3.332 z m 6.649,4.377 c -0.348,-0.271 -1.531,-1.09 -2.863,-1.178 -0.265,1.008 -0.972,2.92 2.34,5.455 -0.047,-0.73 -0.628,-3.322 0.523,-4.277 z m 10.871,-1.07 c -0.44,0.039 -2.004,0.107 -2.917,1.203 0.493,0.918 1.731,2.756 5.452,2.283 -0.532,-0.504 -2.725,-2.002 -2.535,-3.486 z m 46.216,3.361 c -0.439,0.037 -2.004,0.105 -2.916,1.201 1.484,3.328 4.434,2.346 5.779,0.234 -0.361,0.145 -3.72,0.638 -2.863,-1.435 z M 139,142.826 c -0.01,0.928 -0.832,1.992 -2.014,2.592 4.215,2.023 5.605,-1.178 5.049,-3.619 -0.152,0.359 -1.939,2.486 -3.035,1.027 z m -15.992,9.834 c -0.229,-0.379 -0.969,-1.758 -2.354,-2.1 -2.35,2.785 -0.18,5.014 2.307,5.305 -0.289,-0.263 -2.193,-3.072 0.047,-3.205 z m -1.395,-7.865 c 0.537,-0.428 -0.215,-2.148 -1.471,-2.826 -2.705,0.434 -3.688,3.588 -0.965,4.648 -0.306,-0.609 0.235,-2.252 2.436,-1.822 z M 71.304,56.402 c 0.819,-0.984 3.441,-4.589 6.063,-4.589 3.278,0 3.278,6.719 8.194,6.719 1.229,0 1.557,-0.696 2.233,-1.392 -0.758,0.41 -3.38,1.885 -5.837,-5.327 -1.64,-1.147 -2.624,-5.08 1.801,-5.08 l 5.409,-0.165 c 0.654,-1.966 7.21,-5.9 12.292,-5.735 0.328,-2.459 3.277,-7.867 10.816,-5.735 0,0 -4.262,2.622 -4.262,3.932 2.949,-1.639 8.193,0.328 10.326,-3.932 0.654,1.801 0.164,5.244 -5.736,7.702 3.932,-0.491 9.832,-0.164 13.602,-2.131 -0.162,4.753 -9.67,5.082 -9.832,7.375 -0.166,1.803 0.818,4.916 2.949,4.916 0.656,0 2.295,-0.163 2.623,-1.31 1.639,3.113 -1.803,8.194 -7.047,6.556 3.113,3.604 -0.166,13.274 7.209,9.996 -1.146,3.114 -3.604,7.047 -8.686,4.753 0,6.228 6.721,6.063 6.721,13.275 0,1.803 -1.967,5.9 -4.098,7.703 0,-3.605 -4.998,-7.293 -7.047,-5.246 0,13.932 -9.506,10.489 -9.506,16.063 -1.311,-2.131 0.982,-6.066 0.492,-7.213 -4.917,8.031 -10.817,5.9 -10.817,7.375 0,-2.949 1.966,-4.426 1.966,-5.9 0,-2.457 -2.131,-6.227 -1.147,-7.375 -1.967,1.968 -8.522,1.147 -9.833,4.917 -0.493,-1.148 -1.803,-3.606 2.458,-8.031 -4.261,2.458 -8.441,-2.704 -11.882,2.868 -0.656,-3.934 1.393,-6.31 4.506,-9.096 -2.95,0.656 -5.736,0 -6.227,1.803 0.655,-3.606 4.261,-4.26 6.392,-5.572 2.131,-1.147 3.441,-2.541 5.572,-4.998 1.311,-1.803 4.917,-4.016 12.947,-4.18 0.329,0.083 1.064,-0.82 1.064,-1.311 -0.164,0.328 -2.704,2.376 -4.507,-0.165 -0.738,0.574 -2.728,2.294 -5.489,1.065 -0.656,-2.294 2.867,-1.72 1.474,-5.982 -8.849,0 -7.292,-6.31 -8.849,-6.31 -1.23,0 -3.032,1.884 -5.162,1.393 -0.573,-0.079 -2.046,-0.407 -1.145,-1.636 z M 101.787,45.75 c -4.754,-0.82 -4.426,1.311 -5.245,2.13 5.737,1.147 4.589,-2.13 5.245,-2.13 z M 94.74,60.991 c -1.64,-2.131 -4.262,-0.328 -4.753,-0.165 2.786,4.262 3.441,0 4.753,0.165 z"
             fill="#cd3529"
             id="path40"
             style="stroke-width:3.11884" />
        </g>
      </g>
    </g>
  </g>
</svg>
