<?xml version="1.0" encoding="UTF-8" standalone="no"?>
<!-- Created with Inkscape (http://www.inkscape.org/) -->

<svg
   width="1500"
   height="1000.0001"
   viewBox="0 0 396.875 264.58335"
   version="1.1"
   id="svg1"
   inkscape:export-filename="privacy_policy_3_2.png"
   inkscape:export-xdpi="96"
   inkscape:export-ydpi="96"
   sodipodi:docname="template.svg"
   xmlns:inkscape="http://www.inkscape.org/namespaces/inkscape"
   xmlns:sodipodi="http://sodipodi.sourceforge.net/DTD/sodipodi-0.dtd"
   xmlns="http://www.w3.org/2000/svg"
   xmlns:svg="http://www.w3.org/2000/svg">
  <sodipodi:namedview
     id="namedview1"
     pagecolor="#ffffff"
     bordercolor="#000000"
     borderopacity="0.25"
     inkscape:showpageshadow="2"
     inkscape:pageopacity="0.0"
     inkscape:pagecheckerboard="0"
     inkscape:deskcolor="#d1d1d1"
     inkscape:document-units="mm" />
  <defs
     id="defs1" />
  <g
     inkscape:label="Layer 1"
     inkscape:groupmode="layer"
     id="layer1">
    <g
       id="g1"
       transform="translate(-1.5371877,8.9924158)">
      <g
         id="g2"
         transform="matrix(1.627496,0,0,1.627496,-35.089928,-6.6413662)"
         style="stroke-width:0.614441">
        <path
           d="m 51.807815,51.90888 c 0,-5.663908 -4.649999,-6.503006 -9.195111,-6.503006 h -9.47481 v 0.489474 l 1.538345,0.419549 c 1.433459,0.384586 1.643233,0.59436 1.643233,3.601127 v 14.57932 c 0,3.006766 -0.209774,3.21654 -1.643233,3.601127 l -1.538345,0.419549 v 0.489473 H 44.116087 V 68.51602 L 41.878493,68.096471 C 40.410073,67.816772 39.885637,67.50211 39.885637,64.495344 V 46.629558 h 1.922932 c 3.810901,0 6.153382,1.957894 6.153382,5.97857 0,4.23045 -3.601127,5.768796 -6.817668,5.768796 l 0.03496,1.223684 c 4.405263,-0.06992 10.62857,-1.88797 10.62857,-7.691728 z M 75.835982,69.005493 V 68.51602 l -1.153759,-0.384587 c -0.943985,-0.314661 -1.853007,-1.328571 -3.845864,-3.636089 -1.818045,-2.097744 -4.055638,-4.929698 -5.908645,-7.237217 3.181578,-0.73421 6.258269,-2.657142 6.258269,-6.083457 0,-5.034585 -4.545112,-5.768796 -8.565787,-5.768796 h -9.649622 v 0.489474 l 1.538345,0.419549 c 1.433458,0.384586 1.643233,0.59436 1.643233,3.601127 v 14.57932 c 0,3.006766 -0.209775,3.21654 -1.643233,3.601127 l -1.538345,0.419549 v 0.489473 h 9.929321 V 68.51602 L 61.361549,68.096471 C 59.928091,67.711884 59.718316,67.50211 59.718316,64.495344 V 46.629558 h 1.608271 c 3.49624,0 5.97857,1.01391 5.97857,5.174435 0,3.810902 -2.901879,4.964661 -5.873683,4.964661 H 60.34764 c 2.167668,2.971804 7.446991,9.439847 9.649622,12.271802 z m 9.903317,0 V 68.51602 L 84.200953,68.096471 C 82.767495,67.711884 82.557721,67.50211 82.557721,64.495344 v -14.57932 c 0,-3.006767 0.209774,-3.216541 1.643232,-3.601127 l 1.538346,-0.419549 v -0.489474 h -9.929321 v 0.489474 l 1.538345,0.419549 c 1.433458,0.384586 1.643233,0.59436 1.643233,3.601127 v 14.57932 c 0,3.006766 -0.209775,3.21654 -1.643233,3.601127 l -1.538345,0.419549 v 0.489473 z M 110.78136,45.895348 v -0.489474 h -8.18121 v 0.489474 l 1.46842,0.419549 c 1.57331,0.454511 1.88797,1.013909 0.17482,5.279322 l -4.265416,10.698494 c -0.594361,1.503383 -1.01391,2.552255 -1.118797,3.041728 h -0.06992 C 98.684365,64.775043 98.229854,63.376547 97.845268,62.292713 L 93.370081,49.916024 c -1.01391,-2.796992 -0.699248,-3.216541 0.73421,-3.601127 l 1.538346,-0.419549 v -0.489474 h -9.929322 v 0.489474 l 0.978948,0.349624 c 1.363533,0.489473 1.713157,0.769172 2.831954,3.671052 l 7.551878,19.718792 h 1.678195 l 7.9015,-18.94962 c 1.46842,-3.566164 1.78308,-3.950751 3.14662,-4.440224 z m 19.41316,23.110145 V 68.51602 l -0.97895,-0.349624 c -1.36353,-0.489474 -1.71315,-0.769173 -2.83195,-3.671052 l -7.6218,-19.718793 h -1.71316 l -7.93647,18.94962 c -1.50338,3.566165 -1.78308,3.950751 -3.14661,4.440225 l -0.97895,0.349624 v 0.489473 h 8.11128 V 68.51602 l -1.46842,-0.419549 c -1.57331,-0.454511 -1.85301,-1.01391 -0.17482,-5.279322 l 0.90903,-2.307519 h 8.70563 l 1.46842,3.985714 c 1.04888,2.796992 0.69925,3.21654 -0.73421,3.601127 l -1.53834,0.419549 v 0.489473 z M 120.5449,59.04121 h -7.58684 l 2.83195,-7.13233 c 0,0 0.97895,-2.517292 1.08384,-3.006766 h 0.0699 c 0.10489,0.559398 0.97895,3.006766 0.97895,3.006766 z m 30.00673,4.475187 -0.62932,-0.174812 -0.80414,1.783082 c -0.90902,2.027819 -3.49624,2.936841 -5.76879,2.936841 -6.3282,0 -9.5797,-5.139472 -9.5797,-11.537591 0,-5.384209 2.51729,-10.313908 8.49586,-10.313908 2.27256,0 5.45413,0.839098 5.94361,3.006767 l 0.45451,1.957894 h 0.62932 v -5.314285 c -1.78308,-0.629323 -4.12556,-1.118796 -7.09736,-1.118796 -7.37707,0 -12.55151,4.754886 -12.55151,12.446613 0,7.691728 5.38421,12.306765 12.86617,12.306765 2.9718,0 5.83872,-0.734211 7.02744,-1.188722 z m 22.69959,-17.621049 v -0.489474 h -8.14623 v 0.489474 l 1.78308,0.419549 c 1.53834,0.349624 1.25864,1.293608 -0.94399,5.279322 l -2.76203,4.96466 -4.02067,-6.642855 c -1.60827,-2.62218 -1.15376,-3.251503 0.34962,-3.601127 l 1.81805,-0.419549 v -0.489474 h -10.34887 v 0.489474 l 0.97894,0.349624 c 0.94399,0.349624 1.3985,0.699248 3.21654,3.671052 l 4.61504,7.44699 c 0.66429,1.083835 0.73421,1.328572 0.73421,2.727068 v 4.405262 c 0,3.006766 -0.20977,3.21654 -1.64323,3.601127 l -1.53835,0.419549 v 0.489473 h 9.92932 V 68.51602 l -1.53834,-0.419549 c -1.43346,-0.384587 -1.64323,-0.594361 -1.64323,-3.601127 v -4.824811 c 0,-1.188722 0.035,-1.643233 0.66428,-2.657143 l 3.8109,-6.328194 c 1.9579,-3.286465 2.34248,-3.950751 3.70602,-4.440224 z"
           id="text1"
           style="-inkscape-font-specification:'LeMonde Livre';fill:#cd3529;stroke-width:0.921656;stroke-linecap:round"
           aria-label="PRIVACY" />
        <path
           d="m 64.00644,84.511157 c 0,-9.377306 -7.698652,-10.766536 -15.22365,-10.766536 H 33.096063 v 0.810384 l 2.546922,0.694615 c 2.373269,0.636731 2.720577,0.984038 2.720577,5.962114 v 24.137876 c 0,4.97808 -0.347308,5.32539 -2.720577,5.96212 l -2.546922,0.69461 v 0.81039 h 18.175765 v -0.81039 l -3.704615,-0.69461 c -2.431153,-0.46308 -3.299422,-0.98404 -3.299422,-5.96212 V 75.770582 h 3.183653 c 6.309422,0 10.18769,3.241537 10.18769,9.898267 0,7.004036 -5.962114,9.550959 -11.287497,9.550959 l 0.05788,2.025961 C 53.702981,97.13 64.00644,94.12 64.00644,84.511157 Z M 92.9636,97.998269 c 0,-8.509037 -5.267499,-14.297497 -13.544997,-14.297497 -8.972113,0 -14.586919,7.351344 -14.586919,15.802496 0,8.509032 5.209614,14.181732 13.487112,14.181732 8.856344,0 14.644804,-7.29346 14.644804,-15.686731 z m -5.614806,2.836341 c 0,5.15173 -1.852307,10.88231 -7.814421,10.88231 -6.65673,0 -9.087883,-9.7825 -9.087883,-15.33942 0,-5.209614 1.852307,-10.708651 7.467114,-10.708651 6.830383,0 9.43519,9.956151 9.43519,15.165761 z m 21.084906,11.98212 v -0.69462 l -2.14173,-0.57884 c -2.02596,-0.52097 -2.31538,-0.86827 -2.31538,-5.09385 V 69.866352 l -0.34731,-0.231538 -9.493074,1.38923 v 0.694616 l 2.373269,0.520961 c 2.14173,0.463077 2.489038,0.7525 2.489038,4.978076 v 29.231723 c 0,4.22558 -0.289423,4.57288 -2.315384,5.09385 l -2.141731,0.57884 v 0.69462 z m 11.24449,-39.419417 c 0,-1.968076 -1.21558,-3.299422 -3.4152,-3.299422 -2.48903,0 -3.29942,1.910192 -3.29942,3.299422 0,1.38923 0.63673,3.357307 3.24154,3.357307 2.14173,0 3.47308,-1.273461 3.47308,-3.357307 z m 3.53096,39.419417 v -0.69462 l -2.14173,-0.57884 c -2.02596,-0.52097 -2.31539,-0.86827 -2.31539,-5.09385 V 84.511157 l -0.34731,-0.231539 -9.49307,1.389231 v 0.694615 l 2.37327,0.520961 c 2.14173,0.463077 2.48904,0.7525 2.48904,4.978076 v 14.586919 c 0,4.22558 -0.28943,4.57288 -2.31539,5.09385 l -2.14173,0.57884 v 0.69462 z m 22.64774,-5.61481 -0.63673,-0.81038 c -1.56289,1.33134 -4.10981,2.54692 -7.29346,2.54692 -4.80442,0 -9.43519,-3.87827 -9.43519,-12.387306 0,-4.457115 2.08384,-9.724613 7.23557,-9.724613 2.72058,0 5.38327,1.736538 6.48308,4.28346 l 0.40519,0.173654 c 1.09981,-0.347308 2.19962,-1.273461 2.19962,-2.952115 0,-3.125768 -4.10981,-4.28346 -6.7725,-4.28346 -8.33538,0 -13.89231,7.351344 -13.89231,15.339419 0,8.856341 5.44116,14.471151 11.57692,14.123841 5.20962,-0.28942 8.16173,-4.05192 10.12981,-6.30942 z m 27.39433,-21.475187 v -0.694615 h -10.47711 v 0.694615 l 2.14173,0.578846 c 1.79442,0.463077 2.60481,1.215577 0.81039,6.367306 l -3.47308,10.129805 c -0.69462,2.08385 -1.04192,2.95212 -1.21558,3.99404 h -0.11577 c -0.11577,-0.98404 -0.3473,-1.79442 -1.21557,-3.87827 L 155.307,92.672885 c -2.02596,-4.746537 -1.44712,-5.904229 0.23154,-6.367306 l 2.14173,-0.578846 v -0.694615 h -12.96615 v 0.694615 l 1.44711,0.520962 c 1.21558,0.405192 1.33135,1.041922 3.18365,5.151729 l 9.31942,20.954226 c -1.79442,4.97808 -3.58884,8.97211 -6.25153,8.97211 -1.27346,0 -2.19962,-0.86827 -2.66269,-1.91019 l -0.28943,-0.11577 c -1.27346,0.0579 -2.66269,1.27346 -2.66269,3.06789 0,2.02596 1.79442,3.53096 3.93615,3.53096 3.82039,0 7.35135,-4.92019 10.18769,-12.67673 l 7.93019,-21.822496 c 1.56289,-4.225576 2.02597,-4.630768 3.18366,-5.151729 z"
           id="text2"
           style="-inkscape-font-specification:'LeMonde Livre';fill:#ad2c22;stroke-width:0.921661;stroke-linecap:round"
           aria-label="Policy" />
      </g>
      <g
         fill-rule="evenodd"
         clip-rule="evenodd"
         id="g46"
         transform="matrix(1.1002739,0,0,1.1002739,220.72929,18.51153)"
         style="stroke-width:3.11884">
        <path
           d="m 89.589,98.285 c -0.035,-0.955 -0.45,-2.605 -1.042,-4.316 -5.9,1.229 -7.327,2.586 -7.573,5.371 -4.59,-3.113 -2.684,-7.005 -1.769,-8.717 -9.867,-2.673 -5.688,5.85 -17.242,7.324 -0.082,-1.885 0.163,-5.408 -1.803,-5.408 -1.394,0 -1.803,1.801 -3.032,2.375 -1.147,0.491 -4.344,1.229 -2.951,2.704 -1.147,0.164 -4.179,1.146 -3.359,2.949 0.246,0.494 0.819,2.705 0.819,3.525 0,0.49 0.656,0.982 1.557,0.736 -0.982,1.229 -1.557,5.08 1.394,5.408 1.065,0.082 3.523,0.246 4.179,0.656 0.574,0.164 2.294,0.49 2.049,-0.902 0.41,-0.326 1.967,1.721 2.623,0.82 0.491,-0.984 2.048,-2.705 4.917,-3.443 1.065,-0.326 1.394,-2.293 0.983,-3.113 1.638,1.312 6.227,6.721 12.29,0.82 -3.113,0.492 -4.096,-1.639 -5.079,-3.113 2.131,-0.328 5.079,4.916 9.341,2.459 -2.294,-0.328 -2.786,-4.262 -1.147,-6.229 0.983,-1.146 2.294,0 2.786,0.656 1.473,1.803 2.047,1.149 2.059,-0.562 z"
           fill="#cc222d"
           id="path34"
           style="fill:#cd3529;fill-opacity:1;stroke-width:3.11884" />
        <path
           d="m 64.913,81.64 c 1.147,-2.786 9.177,-1.639 14.421,-8.849 -5.899,-0.656 -6.719,-7.047 -16.552,-9.669 0.328,-0.819 0.163,-6.392 0.163,-6.392 0.493,0 2.95,-0.983 3.606,-1.64 2.131,-1.475 -1.434,-2.99 -2.048,-3.933 -1.23,-1.558 -2.049,0.655 -2.212,1.476 -0.165,-0.984 -0.165,-3.771 -1.803,-3.771 -2.868,0.821 -3.934,-1.31 -4.752,-0.326 0,0 -0.983,1.802 -0.492,3.113 -0.819,0 -5.081,0.328 -4.588,1.966 0.327,0.983 0.163,4.425 0.163,4.425 -0.163,0.491 0.984,1.803 2.786,1.967 -1.311,0.983 -3.276,2.458 -2.622,3.114 0.983,0.491 2.13,2.131 2.293,2.785 0,0 1.148,1.147 1.803,0.492 0.328,-0.655 2.131,-1.311 3.442,0 -2.295,0.656 -6.393,1.803 -5.572,6.228 1.639,-3.278 6.555,0.492 9.996,0.165 -2.458,0.491 -2.294,2.623 -6.227,1.802 0.983,1.803 1.639,3.606 7.539,3.77 -0.165,0.491 0.328,2.786 0.656,3.277 z m 38.675,21.305 c 0.738,-1.803 7.049,-1.311 7.131,-12.865 3.852,3.031 12.865,21.224 23.189,21.224 1.803,0 5.244,-0.82 5.244,-4.59 0,-8.193 -19.994,-0.982 -16.389,-16.225 2.785,9.834 7.211,3.769 9.178,5.409 -8.357,-12.292 -9.996,-8.85 -8.521,-26.714 0.328,-2.95 -3.277,-8.359 -5.9,-9.178 1.146,-0.655 4.754,-1.802 7.211,1.146 -1.146,-4.097 -4.916,-16.715 11.309,-16.88 -1.475,0.328 -6.719,2.787 -6.719,7.703 0,2.458 3.275,4.917 3.275,8.194 0,1.922 -1.164,4.265 -2.252,7.125 2.252,-0.405 5.695,-4.994 5.039,-6.797 6.721,9.177 -7.375,11.308 -6.637,18.505 0.648,3.861 2.523,7.24 4.846,10.291 0.645,-2.41 0.316,-7.328 -1.158,-8.803 2.949,2.294 7.553,4.423 5.988,14.339 2.295,2.41 4.543,4.639 6.189,6.803 0.605,-1.475 0.277,-7.047 -0.705,-8.686 3.604,4.426 5.244,10.653 2.949,15.733 -0.984,2.295 -5.408,7.703 -12.455,7.703 -1.477,0 -6.064,-1.146 -8.523,-1.146 0.82,0.49 1.148,3.439 0.82,5.244 0.656,-0.984 2.949,-3.279 5.08,-3.279 0.818,0 3.277,2.131 3.277,4.426 1.477,-0.492 5.408,-3.115 5.408,-5.736 0.984,1.967 1.311,7.047 -0.818,9.014 0.656,0 3.77,-1.639 4.096,-2.459 0.328,1.967 -0.326,5.082 -3.113,6.883 0.656,0 3.279,0.166 4.426,-0.818 -0.49,1.146 -2.131,6.719 -5.9,7.703 -1.475,0.656 1.475,8.85 -4.588,8.521 1.146,1.477 1.311,4.426 -0.492,4.916 -1.148,0.164 -3.441,0.656 -3.77,1.148 -0.656,0.656 -2.457,0.49 -2.457,-0.656 -0.656,0.41 -2.377,4.344 -3.854,2.377 -0.408,-0.82 -1.514,-2.336 -3.031,-2.949 -0.982,-0.656 -1.311,-3.359 1.146,-3.854 1.312,-0.326 0.166,-3.113 -0.818,-4.096 -0.818,-1.146 0.492,-3.934 2.785,-2.785 0.984,0.654 1.969,1.309 2.787,1.309 1.311,0 3.441,-3.275 3.441,-6.881 0,-1.477 -1.146,-2.459 -2.457,-2.459 -2.131,0 -5.082,6.883 -10.326,4.262 0.328,2.293 0.164,8.686 -6.391,12.125 1.475,-2.129 -0.656,-4.26 1.475,-6.881 -2.131,0.984 -5.9,6.227 -5.736,7.703 -4.098,-4.262 2.949,-13.932 1.967,-16.389 -1.312,-1.641 -2.295,-4.59 -2.295,-5.9 0,-1.967 3.605,-10.488 3.605,-15.078 10e-4,-2.458 -2.294,-5.897 -6.556,-7.702 z"
           fill="#cd3529"
           id="path36"
           style="stroke-width:3.11884" />
        <path
           d="m 70.156,143.426 c 0.206,0.82 2.623,0 3.278,-0.328 -0.82,0.656 -0.492,3.115 0.491,3.277 0.984,0.164 2.458,0.818 2.786,1.312 0.328,0.49 3.769,1.311 3.934,-1.641 0.982,0.656 2.458,1.969 3.441,1.146 0,0 2.459,-1.309 3.934,-0.98 0.819,0.326 3.114,-1.312 -0.164,-3.443 0,0 0.819,-2.129 1.64,-2.623 0.982,7.869 6.063,5.9 8.358,4.918 -1.967,0 -2.95,-2.295 -2.95,-2.949 5.571,2.457 8.03,0.49 9.341,-0.818 -1.639,0.49 -4.096,-2.297 -4.096,-3.77 3.439,0.49 4.916,-1.969 4.424,-4.59 -1.967,2.459 -3.932,-0.656 -4.098,-2.131 4.918,-1.967 5.082,-5.244 4.754,-7.867 -1.312,2.787 -5.08,1.967 -5.08,-0.164 0,-4.424 5.408,-5.08 7.332,-4.74 0.693,-2.426 1.271,-4.895 1.271,-6.73 0,-1.557 -0.92,-3.512 -2.68,-5.189 -0.68,0.764 -3.793,2.895 -5.76,2.895 -1.803,0 -4.59,-1.475 -8.195,-1.475 -2.459,0 -8.85,2.457 -7.867,9.504 -3.605,-0.818 -10.816,1.639 -7.703,7.867 2.785,-7.375 6.556,2.131 9.669,-1.475 0.982,2.623 3.604,12.455 -4.425,12.455 -3.77,0 -2.131,-4.26 -4.425,-4.26 -0.819,-0.166 -2.95,0.818 -2.786,2.457 -1.147,0 -4.425,1.312 -3.769,3.443 -0.821,0.49 -3.688,2.785 -2.5,3.398 0.371,0.247 1.681,1.804 1.845,2.501 z m -2.458,-34.58 c -0.409,0.164 -2.541,0.736 -2.622,2.131 0.738,0.736 1.721,1.393 5.654,0.736 -0.656,-0.328 -2.786,-1.393 -3.032,-2.867 z m -9.423,2.949 c -0.411,-0.16 -1.803,-0.572 -3.371,-0.234 0.035,1.043 0.306,2.193 3.626,4.4 -0.255,-0.688 -1.084,-2.92 -0.255,-4.166 z m -7.62,-7.619 c 0.014,-0.441 -0.056,-1.893 -0.896,-3.258 -0.972,0.377 -1.968,1.014 -2.951,4.879 0.563,-0.469 2.397,-1.992 3.847,-1.621 z m 4.178,-9.261 c 0.424,-0.121 2.458,-0.737 2.827,-1.85 -0.657,-0.808 -1.569,-1.562 -5.548,-1.314 0.619,0.394 2.628,1.672 2.721,3.164 z M 52.645,66.879 c -0.154,-0.414 -0.771,-1.727 -2.067,-2.673 -0.754,0.721 -1.433,1.687 -0.874,5.635 0.343,-0.648 1.461,-2.752 2.941,-2.962 z m -2.704,-9.342 c 0.101,-0.429 -0.024,-2.119 -0.239,-3.369 -1.028,0.181 -2.13,0.609 -3.85,4.206 0.644,-0.348 2.74,-1.482 4.089,-0.837 z m 7.125,-9.89 c 0.837,0.643 2.232,0.724 3.435,0.505 0.1,-1.039 -0.02,-2.214 -3.028,-4.832 0.163,0.715 0.574,3.201 -0.407,4.327 z m 7.825,2.746 c 0.554,0.887 1.536,1.584 2.262,1.984 0.646,-0.819 1.529,-3.514 -1.246,-5.128 0.315,1.532 -0.012,2.556 -1.016,3.144 z"
           fill="#cd3529"
           id="path38"
           style="stroke-width:3.11884" />
        <path
           d="m 73.598,133.594 c -0.163,-1.312 0.82,-2.541 2.284,-2.92 -0.99,-0.326 -4.987,-0.688 -6.855,2.625 0.732,-0.004 3.67,-1.264 4.571,0.295 z m -4.043,10.515 c -0.148,-0.416 -1.038,-2.037 -1.99,-2.455 -0.765,0.709 -2.326,2.428 -0.745,5.787 0.352,-0.644 1.251,-3.142 2.735,-3.332 z m 6.649,4.377 c -0.348,-0.271 -1.531,-1.09 -2.863,-1.178 -0.265,1.008 -0.972,2.92 2.34,5.455 -0.047,-0.73 -0.628,-3.322 0.523,-4.277 z m 10.871,-1.07 c -0.44,0.039 -2.004,0.107 -2.917,1.203 0.493,0.918 1.731,2.756 5.452,2.283 -0.532,-0.504 -2.725,-2.002 -2.535,-3.486 z m 46.216,3.361 c -0.439,0.037 -2.004,0.105 -2.916,1.201 1.484,3.328 4.434,2.346 5.779,0.234 -0.361,0.145 -3.72,0.638 -2.863,-1.435 z M 139,142.826 c -0.01,0.928 -0.832,1.992 -2.014,2.592 4.215,2.023 5.605,-1.178 5.049,-3.619 -0.152,0.359 -1.939,2.486 -3.035,1.027 z m -15.992,9.834 c -0.229,-0.379 -0.969,-1.758 -2.354,-2.1 -2.35,2.785 -0.18,5.014 2.307,5.305 -0.289,-0.263 -2.193,-3.072 0.047,-3.205 z m -1.395,-7.865 c 0.537,-0.428 -0.215,-2.148 -1.471,-2.826 -2.705,0.434 -3.688,3.588 -0.965,4.648 -0.306,-0.609 0.235,-2.252 2.436,-1.822 z M 71.304,56.402 c 0.819,-0.984 3.441,-4.589 6.063,-4.589 3.278,0 3.278,6.719 8.194,6.719 1.229,0 1.557,-0.696 2.233,-1.392 -0.758,0.41 -3.38,1.885 -5.837,-5.327 -1.64,-1.147 -2.624,-5.08 1.801,-5.08 l 5.409,-0.165 c 0.654,-1.966 7.21,-5.9 12.292,-5.735 0.328,-2.459 3.277,-7.867 10.816,-5.735 0,0 -4.262,2.622 -4.262,3.932 2.949,-1.639 8.193,0.328 10.326,-3.932 0.654,1.801 0.164,5.244 -5.736,7.702 3.932,-0.491 9.832,-0.164 13.602,-2.131 -0.162,4.753 -9.67,5.082 -9.832,7.375 -0.166,1.803 0.818,4.916 2.949,4.916 0.656,0 2.295,-0.163 2.623,-1.31 1.639,3.113 -1.803,8.194 -7.047,6.556 3.113,3.604 -0.166,13.274 7.209,9.996 -1.146,3.114 -3.604,7.047 -8.686,4.753 0,6.228 6.721,6.063 6.721,13.275 0,1.803 -1.967,5.9 -4.098,7.703 0,-3.605 -4.998,-7.293 -7.047,-5.246 0,13.932 -9.506,10.489 -9.506,16.063 -1.311,-2.131 0.982,-6.066 0.492,-7.213 -4.917,8.031 -10.817,5.9 -10.817,7.375 0,-2.949 1.966,-4.426 1.966,-5.9 0,-2.457 -2.131,-6.227 -1.147,-7.375 -1.967,1.968 -8.522,1.147 -9.833,4.917 -0.493,-1.148 -1.803,-3.606 2.458,-8.031 -4.261,2.458 -8.441,-2.704 -11.882,2.868 -0.656,-3.934 1.393,-6.31 4.506,-9.096 -2.95,0.656 -5.736,0 -6.227,1.803 0.655,-3.606 4.261,-4.26 6.392,-5.572 2.131,-1.147 3.441,-2.541 5.572,-4.998 1.311,-1.803 4.917,-4.016 12.947,-4.18 0.329,0.083 1.064,-0.82 1.064,-1.311 -0.164,0.328 -2.704,2.376 -4.507,-0.165 -0.738,0.574 -2.728,2.294 -5.489,1.065 -0.656,-2.294 2.867,-1.72 1.474,-5.982 -8.849,0 -7.292,-6.31 -8.849,-6.31 -1.23,0 -3.032,1.884 -5.162,1.393 -0.573,-0.079 -2.046,-0.407 -1.145,-1.636 z M 101.787,45.75 c -4.754,-0.82 -4.426,1.311 -5.245,2.13 5.737,1.147 4.589,-2.13 5.245,-2.13 z M 94.74,60.991 c -1.64,-2.131 -4.262,-0.328 -4.753,-0.165 2.786,4.262 3.441,0 4.753,0.165 z"
           fill="#cd3529"
           id="path40"
           style="stroke-width:3.11884" />
      </g>
    </g>
  </g>
</svg>
