<?xml version="1.0" encoding="UTF-8" standalone="no"?>
<!-- Created with Inkscape (http://www.inkscape.org/) -->

<svg
   width="1378.3984"
   height="559.61243"
   viewBox="0 0 364.70125 148.06411"
   version="1.1"
   id="svg1"
   inkscape:export-filename="site_history_3_2.svg"
   inkscape:export-xdpi="96"
   inkscape:export-ydpi="96"
   sodipodi:docname="site_history_3_2.svg"
   xmlns:inkscape="http://www.inkscape.org/namespaces/inkscape"
   xmlns:sodipodi="http://sodipodi.sourceforge.net/DTD/sodipodi-0.dtd"
   xmlns="http://www.w3.org/2000/svg"
   xmlns:svg="http://www.w3.org/2000/svg">
  <sodipodi:namedview
     id="namedview1"
     pagecolor="#ffffff"
     bordercolor="#000000"
     borderopacity="0.25"
     inkscape:showpageshadow="2"
     inkscape:pageopacity="0.0"
     inkscape:pagecheckerboard="0"
     inkscape:deskcolor="#d1d1d1"
     inkscape:document-units="mm" />
  <defs
     id="defs1" />
  <g
     inkscape:label="Layer 1"
     inkscape:groupmode="layer"
     id="layer1"
     transform="translate(-17.236828,-65.081287)">
    <g
       id="g1"
       transform="translate(-1.5371877,8.9924158)">
      <g
         id="g2"
         transform="matrix(1.627496,0,0,1.627496,-35.089928,-6.6413662)"
         style="stroke-width:0.614441">
        <path
           d="m 63.37249,72.384573 c 0,-6.726504 -5.062214,-10.40181 -10.055082,-12.690208 l -4.507451,-2.080362 c -4.022033,-1.872325 -7.905376,-4.438105 -7.905376,-8.529484 0,-4.854178 4.23007,-7.627993 8.806866,-7.627993 6.03305,0 8.668175,2.912506 9.292283,5.547631 l 0.90149,3.675307 h 1.248218 v -9.916392 c -4.23007,-2.011017 -9.084247,-2.219053 -10.887228,-2.219053 -7.627994,0 -14.90926,4.923523 -14.90926,13.036935 0,6.241085 4.784832,10.055082 9.847046,12.412826 l 4.576796,2.149707 c 3.744652,1.802981 7.627994,4.438106 7.627994,9.222938 0,6.03305 -5.062214,9.014902 -10.471155,9.014902 -5.894359,0 -9.153592,-2.704471 -10.471155,-5.755668 l -1.594944,-3.744652 -1.248217,0.346727 1.594944,9.847047 c 3.051197,1.456253 7.558648,2.357743 11.095263,2.357743 8.59883,0 17.058968,-5.062214 17.058968,-15.047951 z M 86.343571,86.322998 V 85.352162 L 83.292374,84.520018 C 80.449212,83.757218 80.03314,83.341146 80.03314,77.377442 V 48.460411 c 0,-5.963704 0.416072,-6.379777 3.259234,-7.142576 L 86.343571,40.48569 V 39.514854 H 66.649478 v 0.970836 l 3.051198,0.832145 c 2.843161,0.762799 3.259233,1.178872 3.259233,7.142576 v 28.917031 c 0,5.963704 -0.416072,6.379776 -3.259233,7.142576 l -3.051198,0.832144 v 0.970836 z M 127.82992,50.471427 V 39.514854 H 86.916135 v 10.956573 h 1.178872 l 0.832144,-4.160724 c 0.554764,-2.635125 2.219053,-3.952687 9.985738,-3.952687 h 4.923521 v 35.019426 c 0,5.963704 -0.41607,6.518467 -3.25923,7.142576 l -3.744653,0.832144 v 0.970836 h 21.081003 v -0.970836 l -3.74465,-0.832144 c -2.84316,-0.624109 -3.25924,-1.178872 -3.25924,-7.142576 V 42.358016 h 4.92353 c 7.76668,0 9.43097,1.317562 9.98573,3.952687 l 0.83215,4.160724 z m 36.07739,26.143215 -1.17887,-0.277381 -1.5256,3.189888 c -1.38691,2.843161 -3.39792,3.952688 -10.5405,3.952688 h -5.33959 c -2.84317,0 -3.814,-0.624109 -3.814,-7.142576 V 63.022944 h 7.35061 c 6.37978,0 7.28127,0.208037 7.97472,2.635125 l 0.83215,2.912507 h 1.04018 V 54.978878 h -1.04018 l -0.7628,2.56578 c -0.69346,2.427089 -1.66429,2.635125 -8.04407,2.635125 h -7.35061 V 42.358016 h 7.41996 c 7.76668,0 9.29228,0.693454 9.98573,3.259233 l 0.83215,3.120543 h 1.10952 v -9.222938 h -32.73102 v 0.970836 l 3.05119,0.832145 c 2.84317,0.762799 3.25924,1.178872 3.25924,7.142576 v 28.917031 c 0,5.963704 -0.41607,6.379776 -3.25924,7.142576 l -3.05119,0.832144 v 0.970836 h 33.70186 z"
           id="text1"
           style="-inkscape-font-specification:'LeMonde Livre';fill:#cd3529;stroke-width:0.921661;stroke-linecap:round"
           aria-label="SITE" />
        <path
           d="m 65.563047,119.61847 v -0.61341 l -1.927856,-0.52578 c -1.796411,-0.48196 -2.0593,-0.74485 -2.0593,-4.51293 V 95.695534 c 0,-3.768081 0.262889,-4.030971 2.0593,-4.512935 l 1.927856,-0.525778 V 90.043412 H 53.119615 v 0.613409 l 1.927856,0.525778 c 1.796411,0.481964 2.0593,0.744854 2.0593,4.512935 v 7.273276 H 41.552482 v -7.273276 c 0,-3.768081 0.262889,-4.030971 2.0593,-4.512935 l 1.927855,-0.525778 V 90.043412 H 33.096206 v 0.613409 l 1.927856,0.525778 c 1.79641,0.481964 2.0593,0.744854 2.0593,4.512935 v 18.270816 c 0,3.76808 -0.26289,4.03097 -2.0593,4.51293 l -1.927856,0.52578 v 0.61341 h 12.443431 v -0.61341 l -1.927855,-0.52578 c -1.796411,-0.48196 -2.0593,-0.74485 -2.0593,-4.51293 v -9.1135 h 15.554289 v 9.1135 c 0,3.76808 -0.262889,4.03097 -2.0593,4.51293 l -1.927856,0.52578 v 0.61341 z m 8.993275,-29.837947 c 0,-1.489707 -0.920113,-2.49745 -2.58508,-2.49745 -1.88404,0 -2.497449,1.445892 -2.497449,2.49745 0,1.051557 0.481964,2.541264 2.453635,2.541264 1.621151,0 2.628894,-0.963928 2.628894,-2.541264 z m 2.672708,29.837947 v -0.52578 l -1.621151,-0.43815 c -1.533521,-0.39433 -1.752596,-0.65722 -1.752596,-3.85571 V 98.192983 l -0.262889,-0.175259 -7.185644,1.051557 v 0.525779 l 1.796411,0.394334 c 1.621151,0.350516 1.884041,0.569596 1.884041,3.768086 v 11.04135 c 0,3.19849 -0.219075,3.46138 -1.752596,3.85571 l -1.621151,0.43815 v 0.52578 z m 13.637694,-6.26553 c 0,-3.15467 -1.664966,-4.77583 -4.732009,-6.26553 -3.505192,-1.70878 -5.345418,-2.49745 -5.345418,-4.60057 0,-1.53352 1.358262,-2.89178 3.505192,-2.89178 2.497449,0 3.549007,1.13919 3.987156,2.84797 l 0.438149,1.62115 h 0.788668 v -5.126343 c -1.840226,-0.832483 -3.592822,-1.007743 -4.688194,-1.007743 -3.461377,0 -6.878939,2.234556 -6.878939,6.046456 0,3.06704 2.015485,4.55675 4.688194,5.8712 2.804153,1.35826 5.213973,2.40982 5.213973,4.95108 0,2.23456 -2.0593,3.54901 -4.118601,3.54901 -3.023228,0 -4.03097,-1.7526 -4.556749,-3.37375 l -0.569594,-1.79641 -0.832483,0.13144 0.438149,5.5645 c 1.358262,0.74485 3.680452,1.13918 5.257788,1.13918 4.600564,0 7.404718,-3.32993 7.404718,-6.65986 z m 14.075856,3.54901 -0.48197,-0.65723 c -0.92011,0.65723 -2.19074,1.22682 -3.549,1.22682 -1.7526,0 -3.154677,-1.31445 -3.154677,-4.33768 v -12.00528 h 5.783567 l 0.17526,-0.17526 v -1.927854 l -5.958827,0.219075 v -6.659865 l -3.592822,2.015486 v 4.644379 l -3.154673,0.219074 -0.438149,1.489705 0.17526,0.17526 h 3.242302 v 12.57488 c 0,3.76808 1.621152,6.26553 4.863454,6.26553 2.541265,0 4.381495,-1.44589 6.090275,-3.06704 z m 21.26145,-8.5001 c 0,-6.44079 -3.98716,-10.822275 -10.25269,-10.822275 -6.79131,0 -11.04135,5.564495 -11.04135,11.961465 0,6.44079 3.94334,10.73465 10.20887,10.73465 6.70368,0 11.08517,-5.52067 11.08517,-11.87384 z m -4.25005,2.14694 c 0,3.89952 -1.40207,8.2372 -5.91501,8.2372 -5.03871,0 -6.87894,-7.40472 -6.87894,-11.61095 0,-3.94334 1.40208,-8.105759 5.65212,-8.105759 5.17016,0 7.14183,7.536159 7.14183,11.479509 z m 20.99864,-10.07743 c 0,-1.489708 -1.22682,-2.672711 -2.80415,-2.672711 -2.0593,0 -3.68046,1.314447 -5.82739,3.899531 h -0.0438 v -3.505197 l -0.26289,-0.175259 -7.27327,1.051557 v 0.525779 l 1.79641,0.394334 c 1.62115,0.350516 2.23456,0.569596 2.23456,3.768086 v 11.04135 c 0,3.19849 -0.21908,3.46138 -1.7526,3.85571 l -1.62115,0.43815 v 0.52578 h 11.61095 v -0.52578 l -2.49745,-0.56959 c -1.53352,-0.35052 -1.97167,-0.52578 -1.97167,-3.72427 v -11.12898 c 0,-1.18301 1.35826,-2.58508 3.19849,-2.58508 1.22681,0 2.19074,0.70104 2.62889,1.62115 l 0.21907,0.0876 c 1.22682,0.0438 2.36601,-0.96393 2.36601,-2.32219 z m 20.95478,-1.358264 v -0.525778 h -7.9305 v 0.525778 l 1.62116,0.438149 c 1.35826,0.350519 1.97167,0.920115 0.6134,4.819635 l -2.62889,7.66761 c -0.52578,1.57734 -0.78867,2.23456 -0.92011,3.02323 h -0.0876 c -0.0876,-0.74485 -0.26289,-1.35826 -0.92012,-2.9356 l -3.32993,-7.75524 c -1.53352,-3.59282 -1.09537,-4.469116 0.17526,-4.819635 l 1.62115,-0.438149 v -0.525778 h -9.81453 v 0.525778 l 1.09537,0.394334 c 0.92011,0.306705 1.00774,0.78867 2.40982,3.89953 l 7.0542,15.86099 c -1.35827,3.76808 -2.71653,6.79131 -4.73201,6.79131 -0.96393,0 -1.66497,-0.65722 -2.01549,-1.44589 l -0.21907,-0.0876 c -0.96393,0.0438 -2.01549,0.96393 -2.01549,2.32219 0,1.53352 1.35826,2.67271 2.97942,2.67271 2.89178,0 5.56449,-3.72427 7.71142,-9.59547 l 6.00264,-16.51821 c 1.183,-3.19849 1.53352,-3.505196 2.40982,-3.89953 z"
           id="text2"
           style="-inkscape-font-specification:'LeMonde Livre';fill:#ad2c22;stroke-width:0.921661;stroke-linecap:round"
           aria-label="History" />
      </g>
      <g
         fill-rule="evenodd"
         clip-rule="evenodd"
         id="g46"
         transform="matrix(1.1002739,0,0,1.1002739,220.72929,18.51153)"
         style="stroke-width:3.11884">
        <path
           d="m 89.589,98.285 c -0.035,-0.955 -0.45,-2.605 -1.042,-4.316 -5.9,1.229 -7.327,2.586 -7.573,5.371 -4.59,-3.113 -2.684,-7.005 -1.769,-8.717 -9.867,-2.673 -5.688,5.85 -17.242,7.324 -0.082,-1.885 0.163,-5.408 -1.803,-5.408 -1.394,0 -1.803,1.801 -3.032,2.375 -1.147,0.491 -4.344,1.229 -2.951,2.704 -1.147,0.164 -4.179,1.146 -3.359,2.949 0.246,0.494 0.819,2.705 0.819,3.525 0,0.49 0.656,0.982 1.557,0.736 -0.982,1.229 -1.557,5.08 1.394,5.408 1.065,0.082 3.523,0.246 4.179,0.656 0.574,0.164 2.294,0.49 2.049,-0.902 0.41,-0.326 1.967,1.721 2.623,0.82 0.491,-0.984 2.048,-2.705 4.917,-3.443 1.065,-0.326 1.394,-2.293 0.983,-3.113 1.638,1.312 6.227,6.721 12.29,0.82 -3.113,0.492 -4.096,-1.639 -5.079,-3.113 2.131,-0.328 5.079,4.916 9.341,2.459 -2.294,-0.328 -2.786,-4.262 -1.147,-6.229 0.983,-1.146 2.294,0 2.786,0.656 1.473,1.803 2.047,1.149 2.059,-0.562 z"
           fill="#cc222d"
           id="path34"
           style="fill:#cd3529;fill-opacity:1;stroke-width:3.11884" />
        <path
           d="m 64.913,81.64 c 1.147,-2.786 9.177,-1.639 14.421,-8.849 -5.899,-0.656 -6.719,-7.047 -16.552,-9.669 0.328,-0.819 0.163,-6.392 0.163,-6.392 0.493,0 2.95,-0.983 3.606,-1.64 2.131,-1.475 -1.434,-2.99 -2.048,-3.933 -1.23,-1.558 -2.049,0.655 -2.212,1.476 -0.165,-0.984 -0.165,-3.771 -1.803,-3.771 -2.868,0.821 -3.934,-1.31 -4.752,-0.326 0,0 -0.983,1.802 -0.492,3.113 -0.819,0 -5.081,0.328 -4.588,1.966 0.327,0.983 0.163,4.425 0.163,4.425 -0.163,0.491 0.984,1.803 2.786,1.967 -1.311,0.983 -3.276,2.458 -2.622,3.114 0.983,0.491 2.13,2.131 2.293,2.785 0,0 1.148,1.147 1.803,0.492 0.328,-0.655 2.131,-1.311 3.442,0 -2.295,0.656 -6.393,1.803 -5.572,6.228 1.639,-3.278 6.555,0.492 9.996,0.165 -2.458,0.491 -2.294,2.623 -6.227,1.802 0.983,1.803 1.639,3.606 7.539,3.77 -0.165,0.491 0.328,2.786 0.656,3.277 z m 38.675,21.305 c 0.738,-1.803 7.049,-1.311 7.131,-12.865 3.852,3.031 12.865,21.224 23.189,21.224 1.803,0 5.244,-0.82 5.244,-4.59 0,-8.193 -19.994,-0.982 -16.389,-16.225 2.785,9.834 7.211,3.769 9.178,5.409 -8.357,-12.292 -9.996,-8.85 -8.521,-26.714 0.328,-2.95 -3.277,-8.359 -5.9,-9.178 1.146,-0.655 4.754,-1.802 7.211,1.146 -1.146,-4.097 -4.916,-16.715 11.309,-16.88 -1.475,0.328 -6.719,2.787 -6.719,7.703 0,2.458 3.275,4.917 3.275,8.194 0,1.922 -1.164,4.265 -2.252,7.125 2.252,-0.405 5.695,-4.994 5.039,-6.797 6.721,9.177 -7.375,11.308 -6.637,18.505 0.648,3.861 2.523,7.24 4.846,10.291 0.645,-2.41 0.316,-7.328 -1.158,-8.803 2.949,2.294 7.553,4.423 5.988,14.339 2.295,2.41 4.543,4.639 6.189,6.803 0.605,-1.475 0.277,-7.047 -0.705,-8.686 3.604,4.426 5.244,10.653 2.949,15.733 -0.984,2.295 -5.408,7.703 -12.455,7.703 -1.477,0 -6.064,-1.146 -8.523,-1.146 0.82,0.49 1.148,3.439 0.82,5.244 0.656,-0.984 2.949,-3.279 5.08,-3.279 0.818,0 3.277,2.131 3.277,4.426 1.477,-0.492 5.408,-3.115 5.408,-5.736 0.984,1.967 1.311,7.047 -0.818,9.014 0.656,0 3.77,-1.639 4.096,-2.459 0.328,1.967 -0.326,5.082 -3.113,6.883 0.656,0 3.279,0.166 4.426,-0.818 -0.49,1.146 -2.131,6.719 -5.9,7.703 -1.475,0.656 1.475,8.85 -4.588,8.521 1.146,1.477 1.311,4.426 -0.492,4.916 -1.148,0.164 -3.441,0.656 -3.77,1.148 -0.656,0.656 -2.457,0.49 -2.457,-0.656 -0.656,0.41 -2.377,4.344 -3.854,2.377 -0.408,-0.82 -1.514,-2.336 -3.031,-2.949 -0.982,-0.656 -1.311,-3.359 1.146,-3.854 1.312,-0.326 0.166,-3.113 -0.818,-4.096 -0.818,-1.146 0.492,-3.934 2.785,-2.785 0.984,0.654 1.969,1.309 2.787,1.309 1.311,0 3.441,-3.275 3.441,-6.881 0,-1.477 -1.146,-2.459 -2.457,-2.459 -2.131,0 -5.082,6.883 -10.326,4.262 0.328,2.293 0.164,8.686 -6.391,12.125 1.475,-2.129 -0.656,-4.26 1.475,-6.881 -2.131,0.984 -5.9,6.227 -5.736,7.703 -4.098,-4.262 2.949,-13.932 1.967,-16.389 -1.312,-1.641 -2.295,-4.59 -2.295,-5.9 0,-1.967 3.605,-10.488 3.605,-15.078 10e-4,-2.458 -2.294,-5.897 -6.556,-7.702 z"
           fill="#cd3529"
           id="path36"
           style="stroke-width:3.11884" />
        <path
           d="m 70.156,143.426 c 0.206,0.82 2.623,0 3.278,-0.328 -0.82,0.656 -0.492,3.115 0.491,3.277 0.984,0.164 2.458,0.818 2.786,1.312 0.328,0.49 3.769,1.311 3.934,-1.641 0.982,0.656 2.458,1.969 3.441,1.146 0,0 2.459,-1.309 3.934,-0.98 0.819,0.326 3.114,-1.312 -0.164,-3.443 0,0 0.819,-2.129 1.64,-2.623 0.982,7.869 6.063,5.9 8.358,4.918 -1.967,0 -2.95,-2.295 -2.95,-2.949 5.571,2.457 8.03,0.49 9.341,-0.818 -1.639,0.49 -4.096,-2.297 -4.096,-3.77 3.439,0.49 4.916,-1.969 4.424,-4.59 -1.967,2.459 -3.932,-0.656 -4.098,-2.131 4.918,-1.967 5.082,-5.244 4.754,-7.867 -1.312,2.787 -5.08,1.967 -5.08,-0.164 0,-4.424 5.408,-5.08 7.332,-4.74 0.693,-2.426 1.271,-4.895 1.271,-6.73 0,-1.557 -0.92,-3.512 -2.68,-5.189 -0.68,0.764 -3.793,2.895 -5.76,2.895 -1.803,0 -4.59,-1.475 -8.195,-1.475 -2.459,0 -8.85,2.457 -7.867,9.504 -3.605,-0.818 -10.816,1.639 -7.703,7.867 2.785,-7.375 6.556,2.131 9.669,-1.475 0.982,2.623 3.604,12.455 -4.425,12.455 -3.77,0 -2.131,-4.26 -4.425,-4.26 -0.819,-0.166 -2.95,0.818 -2.786,2.457 -1.147,0 -4.425,1.312 -3.769,3.443 -0.821,0.49 -3.688,2.785 -2.5,3.398 0.371,0.247 1.681,1.804 1.845,2.501 z m -2.458,-34.58 c -0.409,0.164 -2.541,0.736 -2.622,2.131 0.738,0.736 1.721,1.393 5.654,0.736 -0.656,-0.328 -2.786,-1.393 -3.032,-2.867 z m -9.423,2.949 c -0.411,-0.16 -1.803,-0.572 -3.371,-0.234 0.035,1.043 0.306,2.193 3.626,4.4 -0.255,-0.688 -1.084,-2.92 -0.255,-4.166 z m -7.62,-7.619 c 0.014,-0.441 -0.056,-1.893 -0.896,-3.258 -0.972,0.377 -1.968,1.014 -2.951,4.879 0.563,-0.469 2.397,-1.992 3.847,-1.621 z m 4.178,-9.261 c 0.424,-0.121 2.458,-0.737 2.827,-1.85 -0.657,-0.808 -1.569,-1.562 -5.548,-1.314 0.619,0.394 2.628,1.672 2.721,3.164 z M 52.645,66.879 c -0.154,-0.414 -0.771,-1.727 -2.067,-2.673 -0.754,0.721 -1.433,1.687 -0.874,5.635 0.343,-0.648 1.461,-2.752 2.941,-2.962 z m -2.704,-9.342 c 0.101,-0.429 -0.024,-2.119 -0.239,-3.369 -1.028,0.181 -2.13,0.609 -3.85,4.206 0.644,-0.348 2.74,-1.482 4.089,-0.837 z m 7.125,-9.89 c 0.837,0.643 2.232,0.724 3.435,0.505 0.1,-1.039 -0.02,-2.214 -3.028,-4.832 0.163,0.715 0.574,3.201 -0.407,4.327 z m 7.825,2.746 c 0.554,0.887 1.536,1.584 2.262,1.984 0.646,-0.819 1.529,-3.514 -1.246,-5.128 0.315,1.532 -0.012,2.556 -1.016,3.144 z"
           fill="#cd3529"
           id="path38"
           style="stroke-width:3.11884" />
        <path
           d="m 73.598,133.594 c -0.163,-1.312 0.82,-2.541 2.284,-2.92 -0.99,-0.326 -4.987,-0.688 -6.855,2.625 0.732,-0.004 3.67,-1.264 4.571,0.295 z m -4.043,10.515 c -0.148,-0.416 -1.038,-2.037 -1.99,-2.455 -0.765,0.709 -2.326,2.428 -0.745,5.787 0.352,-0.644 1.251,-3.142 2.735,-3.332 z m 6.649,4.377 c -0.348,-0.271 -1.531,-1.09 -2.863,-1.178 -0.265,1.008 -0.972,2.92 2.34,5.455 -0.047,-0.73 -0.628,-3.322 0.523,-4.277 z m 10.871,-1.07 c -0.44,0.039 -2.004,0.107 -2.917,1.203 0.493,0.918 1.731,2.756 5.452,2.283 -0.532,-0.504 -2.725,-2.002 -2.535,-3.486 z m 46.216,3.361 c -0.439,0.037 -2.004,0.105 -2.916,1.201 1.484,3.328 4.434,2.346 5.779,0.234 -0.361,0.145 -3.72,0.638 -2.863,-1.435 z M 139,142.826 c -0.01,0.928 -0.832,1.992 -2.014,2.592 4.215,2.023 5.605,-1.178 5.049,-3.619 -0.152,0.359 -1.939,2.486 -3.035,1.027 z m -15.992,9.834 c -0.229,-0.379 -0.969,-1.758 -2.354,-2.1 -2.35,2.785 -0.18,5.014 2.307,5.305 -0.289,-0.263 -2.193,-3.072 0.047,-3.205 z m -1.395,-7.865 c 0.537,-0.428 -0.215,-2.148 -1.471,-2.826 -2.705,0.434 -3.688,3.588 -0.965,4.648 -0.306,-0.609 0.235,-2.252 2.436,-1.822 z M 71.304,56.402 c 0.819,-0.984 3.441,-4.589 6.063,-4.589 3.278,0 3.278,6.719 8.194,6.719 1.229,0 1.557,-0.696 2.233,-1.392 -0.758,0.41 -3.38,1.885 -5.837,-5.327 -1.64,-1.147 -2.624,-5.08 1.801,-5.08 l 5.409,-0.165 c 0.654,-1.966 7.21,-5.9 12.292,-5.735 0.328,-2.459 3.277,-7.867 10.816,-5.735 0,0 -4.262,2.622 -4.262,3.932 2.949,-1.639 8.193,0.328 10.326,-3.932 0.654,1.801 0.164,5.244 -5.736,7.702 3.932,-0.491 9.832,-0.164 13.602,-2.131 -0.162,4.753 -9.67,5.082 -9.832,7.375 -0.166,1.803 0.818,4.916 2.949,4.916 0.656,0 2.295,-0.163 2.623,-1.31 1.639,3.113 -1.803,8.194 -7.047,6.556 3.113,3.604 -0.166,13.274 7.209,9.996 -1.146,3.114 -3.604,7.047 -8.686,4.753 0,6.228 6.721,6.063 6.721,13.275 0,1.803 -1.967,5.9 -4.098,7.703 0,-3.605 -4.998,-7.293 -7.047,-5.246 0,13.932 -9.506,10.489 -9.506,16.063 -1.311,-2.131 0.982,-6.066 0.492,-7.213 -4.917,8.031 -10.817,5.9 -10.817,7.375 0,-2.949 1.966,-4.426 1.966,-5.9 0,-2.457 -2.131,-6.227 -1.147,-7.375 -1.967,1.968 -8.522,1.147 -9.833,4.917 -0.493,-1.148 -1.803,-3.606 2.458,-8.031 -4.261,2.458 -8.441,-2.704 -11.882,2.868 -0.656,-3.934 1.393,-6.31 4.506,-9.096 -2.95,0.656 -5.736,0 -6.227,1.803 0.655,-3.606 4.261,-4.26 6.392,-5.572 2.131,-1.147 3.441,-2.541 5.572,-4.998 1.311,-1.803 4.917,-4.016 12.947,-4.18 0.329,0.083 1.064,-0.82 1.064,-1.311 -0.164,0.328 -2.704,2.376 -4.507,-0.165 -0.738,0.574 -2.728,2.294 -5.489,1.065 -0.656,-2.294 2.867,-1.72 1.474,-5.982 -8.849,0 -7.292,-6.31 -8.849,-6.31 -1.23,0 -3.032,1.884 -5.162,1.393 -0.573,-0.079 -2.046,-0.407 -1.145,-1.636 z M 101.787,45.75 c -4.754,-0.82 -4.426,1.311 -5.245,2.13 5.737,1.147 4.589,-2.13 5.245,-2.13 z M 94.74,60.991 c -1.64,-2.131 -4.262,-0.328 -4.753,-0.165 2.786,4.262 3.441,0 4.753,0.165 z"
           fill="#cd3529"
           id="path40"
           style="stroke-width:3.11884" />
      </g>
    </g>
  </g>
</svg>
