<?xml version="1.0" encoding="UTF-8" standalone="no"?>
<!-- Created with Inkscape (http://www.inkscape.org/) -->

<svg
   width="1375.1561"
   height="510.93454"
   viewBox="0 0 363.84339 135.18476"
   version="1.1"
   id="svg1"
   inkscape:export-filename="stadiums_3_2.svg"
   inkscape:export-xdpi="96"
   inkscape:export-ydpi="96"
   sodipodi:docname="template.svg"
   xmlns:inkscape="http://www.inkscape.org/namespaces/inkscape"
   xmlns:sodipodi="http://sodipodi.sourceforge.net/DTD/sodipodi-0.dtd"
   xmlns="http://www.w3.org/2000/svg"
   xmlns:svg="http://www.w3.org/2000/svg">
  <sodipodi:namedview
     id="namedview1"
     pagecolor="#ffffff"
     bordercolor="#000000"
     borderopacity="0.25"
     inkscape:showpageshadow="2"
     inkscape:pageopacity="0.0"
     inkscape:pagecheckerboard="0"
     inkscape:deskcolor="#d1d1d1"
     inkscape:document-units="mm" />
  <defs
     id="defs1" />
  <g
     inkscape:label="Layer 1"
     inkscape:groupmode="layer"
     id="layer1"
     transform="translate(-18.094694,-64.699299)">
    <g
       id="g1"
       transform="translate(-1.5371877,8.9924158)">
      <g
         id="g2"
         transform="matrix(1.627496,0,0,1.627496,-35.089928,-5.8566143)"
         style="stroke-width:0.614441">
        <g
           id="g3"
           transform="matrix(0.85447357,0,0,0.85447357,4.8930809,5.129295)"
           style="stroke-width:0.719087">
          <path
             d="m 63.37249,72.384573 c 0,-6.726504 -5.062214,-10.40181 -10.055082,-12.690208 l -4.507451,-2.080362 c -4.022033,-1.872325 -7.905376,-4.438105 -7.905376,-8.529484 0,-4.854178 4.23007,-7.627993 8.806866,-7.627993 6.03305,0 8.668175,2.912506 9.292283,5.547631 l 0.90149,3.675307 h 1.248218 v -9.916392 c -4.23007,-2.011017 -9.084247,-2.219053 -10.887228,-2.219053 -7.627994,0 -14.90926,4.923523 -14.90926,13.036935 0,6.241085 4.784832,10.055082 9.847046,12.412826 l 4.576796,2.149707 c 3.744652,1.802981 7.627994,4.438106 7.627994,9.222938 0,6.03305 -5.062214,9.014902 -10.471155,9.014902 -5.894359,0 -9.153592,-2.704471 -10.471155,-5.755668 l -1.594944,-3.744652 -1.248217,0.346727 1.594944,9.847047 c 3.051197,1.456253 7.558648,2.357743 11.095263,2.357743 8.59883,0 17.058968,-5.062214 17.058968,-15.047951 z M 103.67987,50.471427 V 39.514854 H 62.766088 v 10.956573 h 1.178871 l 0.832145,-4.160724 c 0.554763,-2.635125 2.219053,-3.952687 9.985737,-3.952687 h 4.923524 v 35.019426 c 0,5.963704 -0.416073,6.518467 -3.259234,7.142576 l -3.744651,0.832144 v 0.970836 H 93.763481 V 85.352162 L 90.018829,84.520018 C 87.175668,83.895909 86.759595,83.341146 86.759595,77.377442 V 42.358016 h 4.923524 c 7.766684,0 9.430971,1.317562 9.985741,3.952687 l 0.83214,4.160724 z m 42.59586,35.851571 v -0.970836 l -1.94167,-0.693454 c -2.70447,-0.970835 -3.39792,-1.525598 -5.61697,-7.281266 l -15.1173,-39.110805 h -3.39793 l -15.7414,37.585206 c -2.98185,7.073231 -3.53662,7.83603 -6.241087,8.806865 l -1.941671,0.693454 v 0.970836 h 16.088128 v -0.970836 l -2.9125,-0.832144 c -3.12055,-0.90149 -3.67531,-2.011017 -0.34673,-10.471155 l 1.80298,-4.576797 h 17.26701 l 2.9125,7.905376 c 2.08036,5.547632 1.38691,6.379776 -1.45625,7.142576 l -3.0512,0.832144 v 0.970836 z M 127.1364,66.55956 h -15.04795 l 5.61698,-14.146462 c 0,0 1.94167,-4.992868 2.14971,-5.963704 h 0.13869 c 0.20803,1.109527 1.94167,5.963704 1.94167,5.963704 z m 68.18437,-4.715487 c 0,-15.880097 -10.81788,-22.329219 -25.44976,-22.329219 h -23.92416 v 0.970836 l 3.0512,0.832145 c 2.84316,0.762799 3.25923,1.178872 3.25923,7.142576 v 28.917031 c 0,5.963704 -0.41607,6.379776 -3.25923,7.142576 l -3.0512,0.832144 v 0.970836 h 21.63576 c 13.52236,0 27.73816,-8.252102 27.73816,-24.478925 z m -8.18275,0.832144 c 0,13.938425 -8.18276,20.872965 -21.77446,20.872965 h -2.21905 c -2.84316,0 -3.814,-0.624108 -3.814,-7.142576 V 42.28867 h 7.28127 c 13.52235,0 20.52624,6.795849 20.52624,20.387547 z"
             id="text1"
             style="-inkscape-font-specification:'LeMonde Livre';fill:#cd3529;stroke-width:1.07863;stroke-linecap:round"
             aria-label="STAD" />
          <path
             d="m 52.9771,134.38589 v -0.95406 l -2.998474,-0.81777 c -2.794032,-0.74961 -3.202915,-1.15849 -3.202915,-7.01915 V 97.177559 c 0,-5.860653 0.408883,-6.269536 3.202915,-7.019155 L 52.9771,89.340639 v -0.95406 H 33.623315 v 0.95406 l 2.998474,0.817765 c 2.794032,0.749619 3.202915,1.158502 3.202915,7.019155 v 28.417351 c 0,5.86066 -0.408883,6.26954 -3.202915,7.01915 l -2.998474,0.81777 v 0.95406 z m 50.51451,-45.045251 v -0.95406 H 86.727413 v 0.95406 l 3.33921,0.885912 c 2.930326,0.817766 3.54365,1.90812 3.54365,16.491599 v 5.65622 c 0,9.06357 -1.771825,19.42193 -13.016101,19.42193 -10.494658,0 -13.28869,-9.33616 -13.28869,-17.7864 V 97.177559 c 0,-5.860653 0.408883,-6.269536 3.202915,-7.019155 l 2.998474,-0.817765 v -0.95406 H 54.153085 v 0.95406 l 2.998474,0.817765 c 2.794033,0.749619 3.202916,1.158502 3.202916,7.019155 v 18.467871 c 0,11.72131 6.065094,19.83082 18.399724,19.83082 14.924222,0 18.604167,-10.90354 18.604167,-22.82929 v -9.4043 c 0,-10.971695 0.477029,-12.334637 3.134764,-13.084256 z m 59.64623,0 v -0.95406 l -14.44719,-0.06815 -11.9939,30.121031 c -0.88591,2.24885 -2.38515,5.65621 -2.58959,7.01915 h -0.13629 c -0.13629,-1.63553 -1.56738,-5.11103 -2.24886,-6.951 l -11.78945,-30.189181 -15.53755,0.06815 v 0.95406 l 3.20292,0.817765 c 2.79404,0.749619 4.02068,1.226649 3.88438,7.019155 l -0.47702,22.284111 c -0.20445,10.97169 -0.54518,12.40278 -3.20292,13.15239 l -2.99847,0.81777 v 0.95406 h 16.69605 v -0.95406 l -3.33921,-0.88591 c -2.93033,-0.81777 -3.67995,-2.24886 -3.40736,-16.49161 l 0.27259,-15.67384 c 0.0681,-3.066617 0.0681,-5.588061 0,-6.201385 h 0.1363 c 0.47702,1.567384 1.43108,3.816239 2.24885,5.928805 l 13.90201,34.278 h 2.5896 l 13.83386,-35.027623 c 0.88591,-2.248856 1.77183,-4.634005 2.24885,-5.9288 h 0.1363 c 0,1.908119 0,3.748092 0.0681,6.201388 l 0.61332,25.964055 c 0.1363,5.86066 -0.40888,6.26954 -3.20292,7.01915 l -2.99847,0.81777 v 0.95406 h 19.21749 v -0.95406 l -2.99847,-0.81777 c -2.79403,-0.74961 -3.06662,-1.15849 -3.20292,-7.01915 L 156.9364,97.177559 c -0.1363,-5.860653 0.40889,-6.269536 3.20292,-7.019155 z m 32.18293,31.347671 c 0,-6.61026 -4.97474,-10.22206 -9.88133,-12.47092 l -4.42957,-2.04441 c -3.95253,-1.83998 -7.76877,-4.36141 -7.76877,-8.382097 0,-4.770299 4.15698,-7.496184 8.65469,-7.496184 5.9288,0 8.51839,2.862179 9.13172,5.45177 l 0.8859,3.611798 h 1.22666 v -9.74504 c -4.15698,-1.976266 -8.92728,-2.180708 -10.6991,-2.180708 -7.49619,0 -14.65164,4.838446 -14.65164,12.811661 0,6.13324 4.70215,9.88133 9.6769,12.19834 l 4.49771,2.11255 c 3.67994,1.77183 7.49619,4.36143 7.49619,9.06358 0,5.92879 -4.97475,8.85912 -10.29022,8.85912 -5.79251,0 -8.99543,-2.65773 -10.29022,-5.65621 l -1.56738,-3.67995 -1.22666,0.34074 1.56739,9.6769 c 2.99848,1.43109 7.42804,2.317 10.90354,2.317 8.45025,0 16.76419,-4.97474 16.76419,-14.78794 z"
             id="text2"
             style="-inkscape-font-specification:'LeMonde Livre';fill:#ad2c22;stroke-width:1.07863;stroke-linecap:round"
             aria-label="IUMS" />
        </g>
      </g>
      <g
         fill-rule="evenodd"
         clip-rule="evenodd"
         id="g46"
         transform="matrix(1.1002739,0,0,1.1002739,220.72929,18.51153)"
         style="stroke-width:3.11884">
        <path
           d="m 89.589,98.285 c -0.035,-0.955 -0.45,-2.605 -1.042,-4.316 -5.9,1.229 -7.327,2.586 -7.573,5.371 -4.59,-3.113 -2.684,-7.005 -1.769,-8.717 -9.867,-2.673 -5.688,5.85 -17.242,7.324 -0.082,-1.885 0.163,-5.408 -1.803,-5.408 -1.394,0 -1.803,1.801 -3.032,2.375 -1.147,0.491 -4.344,1.229 -2.951,2.704 -1.147,0.164 -4.179,1.146 -3.359,2.949 0.246,0.494 0.819,2.705 0.819,3.525 0,0.49 0.656,0.982 1.557,0.736 -0.982,1.229 -1.557,5.08 1.394,5.408 1.065,0.082 3.523,0.246 4.179,0.656 0.574,0.164 2.294,0.49 2.049,-0.902 0.41,-0.326 1.967,1.721 2.623,0.82 0.491,-0.984 2.048,-2.705 4.917,-3.443 1.065,-0.326 1.394,-2.293 0.983,-3.113 1.638,1.312 6.227,6.721 12.29,0.82 -3.113,0.492 -4.096,-1.639 -5.079,-3.113 2.131,-0.328 5.079,4.916 9.341,2.459 -2.294,-0.328 -2.786,-4.262 -1.147,-6.229 0.983,-1.146 2.294,0 2.786,0.656 1.473,1.803 2.047,1.149 2.059,-0.562 z"
           fill="#cc222d"
           id="path34"
           style="fill:#cd3529;fill-opacity:1;stroke-width:3.11884" />
        <path
           d="m 64.913,81.64 c 1.147,-2.786 9.177,-1.639 14.421,-8.849 -5.899,-0.656 -6.719,-7.047 -16.552,-9.669 0.328,-0.819 0.163,-6.392 0.163,-6.392 0.493,0 2.95,-0.983 3.606,-1.64 2.131,-1.475 -1.434,-2.99 -2.048,-3.933 -1.23,-1.558 -2.049,0.655 -2.212,1.476 -0.165,-0.984 -0.165,-3.771 -1.803,-3.771 -2.868,0.821 -3.934,-1.31 -4.752,-0.326 0,0 -0.983,1.802 -0.492,3.113 -0.819,0 -5.081,0.328 -4.588,1.966 0.327,0.983 0.163,4.425 0.163,4.425 -0.163,0.491 0.984,1.803 2.786,1.967 -1.311,0.983 -3.276,2.458 -2.622,3.114 0.983,0.491 2.13,2.131 2.293,2.785 0,0 1.148,1.147 1.803,0.492 0.328,-0.655 2.131,-1.311 3.442,0 -2.295,0.656 -6.393,1.803 -5.572,6.228 1.639,-3.278 6.555,0.492 9.996,0.165 -2.458,0.491 -2.294,2.623 -6.227,1.802 0.983,1.803 1.639,3.606 7.539,3.77 -0.165,0.491 0.328,2.786 0.656,3.277 z m 38.675,21.305 c 0.738,-1.803 7.049,-1.311 7.131,-12.865 3.852,3.031 12.865,21.224 23.189,21.224 1.803,0 5.244,-0.82 5.244,-4.59 0,-8.193 -19.994,-0.982 -16.389,-16.225 2.785,9.834 7.211,3.769 9.178,5.409 -8.357,-12.292 -9.996,-8.85 -8.521,-26.714 0.328,-2.95 -3.277,-8.359 -5.9,-9.178 1.146,-0.655 4.754,-1.802 7.211,1.146 -1.146,-4.097 -4.916,-16.715 11.309,-16.88 -1.475,0.328 -6.719,2.787 -6.719,7.703 0,2.458 3.275,4.917 3.275,8.194 0,1.922 -1.164,4.265 -2.252,7.125 2.252,-0.405 5.695,-4.994 5.039,-6.797 6.721,9.177 -7.375,11.308 -6.637,18.505 0.648,3.861 2.523,7.24 4.846,10.291 0.645,-2.41 0.316,-7.328 -1.158,-8.803 2.949,2.294 7.553,4.423 5.988,14.339 2.295,2.41 4.543,4.639 6.189,6.803 0.605,-1.475 0.277,-7.047 -0.705,-8.686 3.604,4.426 5.244,10.653 2.949,15.733 -0.984,2.295 -5.408,7.703 -12.455,7.703 -1.477,0 -6.064,-1.146 -8.523,-1.146 0.82,0.49 1.148,3.439 0.82,5.244 0.656,-0.984 2.949,-3.279 5.08,-3.279 0.818,0 3.277,2.131 3.277,4.426 1.477,-0.492 5.408,-3.115 5.408,-5.736 0.984,1.967 1.311,7.047 -0.818,9.014 0.656,0 3.77,-1.639 4.096,-2.459 0.328,1.967 -0.326,5.082 -3.113,6.883 0.656,0 3.279,0.166 4.426,-0.818 -0.49,1.146 -2.131,6.719 -5.9,7.703 -1.475,0.656 1.475,8.85 -4.588,8.521 1.146,1.477 1.311,4.426 -0.492,4.916 -1.148,0.164 -3.441,0.656 -3.77,1.148 -0.656,0.656 -2.457,0.49 -2.457,-0.656 -0.656,0.41 -2.377,4.344 -3.854,2.377 -0.408,-0.82 -1.514,-2.336 -3.031,-2.949 -0.982,-0.656 -1.311,-3.359 1.146,-3.854 1.312,-0.326 0.166,-3.113 -0.818,-4.096 -0.818,-1.146 0.492,-3.934 2.785,-2.785 0.984,0.654 1.969,1.309 2.787,1.309 1.311,0 3.441,-3.275 3.441,-6.881 0,-1.477 -1.146,-2.459 -2.457,-2.459 -2.131,0 -5.082,6.883 -10.326,4.262 0.328,2.293 0.164,8.686 -6.391,12.125 1.475,-2.129 -0.656,-4.26 1.475,-6.881 -2.131,0.984 -5.9,6.227 -5.736,7.703 -4.098,-4.262 2.949,-13.932 1.967,-16.389 -1.312,-1.641 -2.295,-4.59 -2.295,-5.9 0,-1.967 3.605,-10.488 3.605,-15.078 10e-4,-2.458 -2.294,-5.897 -6.556,-7.702 z"
           fill="#cd3529"
           id="path36"
           style="stroke-width:3.11884" />
        <path
           d="m 70.156,143.426 c 0.206,0.82 2.623,0 3.278,-0.328 -0.82,0.656 -0.492,3.115 0.491,3.277 0.984,0.164 2.458,0.818 2.786,1.312 0.328,0.49 3.769,1.311 3.934,-1.641 0.982,0.656 2.458,1.969 3.441,1.146 0,0 2.459,-1.309 3.934,-0.98 0.819,0.326 3.114,-1.312 -0.164,-3.443 0,0 0.819,-2.129 1.64,-2.623 0.982,7.869 6.063,5.9 8.358,4.918 -1.967,0 -2.95,-2.295 -2.95,-2.949 5.571,2.457 8.03,0.49 9.341,-0.818 -1.639,0.49 -4.096,-2.297 -4.096,-3.77 3.439,0.49 4.916,-1.969 4.424,-4.59 -1.967,2.459 -3.932,-0.656 -4.098,-2.131 4.918,-1.967 5.082,-5.244 4.754,-7.867 -1.312,2.787 -5.08,1.967 -5.08,-0.164 0,-4.424 5.408,-5.08 7.332,-4.74 0.693,-2.426 1.271,-4.895 1.271,-6.73 0,-1.557 -0.92,-3.512 -2.68,-5.189 -0.68,0.764 -3.793,2.895 -5.76,2.895 -1.803,0 -4.59,-1.475 -8.195,-1.475 -2.459,0 -8.85,2.457 -7.867,9.504 -3.605,-0.818 -10.816,1.639 -7.703,7.867 2.785,-7.375 6.556,2.131 9.669,-1.475 0.982,2.623 3.604,12.455 -4.425,12.455 -3.77,0 -2.131,-4.26 -4.425,-4.26 -0.819,-0.166 -2.95,0.818 -2.786,2.457 -1.147,0 -4.425,1.312 -3.769,3.443 -0.821,0.49 -3.688,2.785 -2.5,3.398 0.371,0.247 1.681,1.804 1.845,2.501 z m -2.458,-34.58 c -0.409,0.164 -2.541,0.736 -2.622,2.131 0.738,0.736 1.721,1.393 5.654,0.736 -0.656,-0.328 -2.786,-1.393 -3.032,-2.867 z m -9.423,2.949 c -0.411,-0.16 -1.803,-0.572 -3.371,-0.234 0.035,1.043 0.306,2.193 3.626,4.4 -0.255,-0.688 -1.084,-2.92 -0.255,-4.166 z m -7.62,-7.619 c 0.014,-0.441 -0.056,-1.893 -0.896,-3.258 -0.972,0.377 -1.968,1.014 -2.951,4.879 0.563,-0.469 2.397,-1.992 3.847,-1.621 z m 4.178,-9.261 c 0.424,-0.121 2.458,-0.737 2.827,-1.85 -0.657,-0.808 -1.569,-1.562 -5.548,-1.314 0.619,0.394 2.628,1.672 2.721,3.164 z M 52.645,66.879 c -0.154,-0.414 -0.771,-1.727 -2.067,-2.673 -0.754,0.721 -1.433,1.687 -0.874,5.635 0.343,-0.648 1.461,-2.752 2.941,-2.962 z m -2.704,-9.342 c 0.101,-0.429 -0.024,-2.119 -0.239,-3.369 -1.028,0.181 -2.13,0.609 -3.85,4.206 0.644,-0.348 2.74,-1.482 4.089,-0.837 z m 7.125,-9.89 c 0.837,0.643 2.232,0.724 3.435,0.505 0.1,-1.039 -0.02,-2.214 -3.028,-4.832 0.163,0.715 0.574,3.201 -0.407,4.327 z m 7.825,2.746 c 0.554,0.887 1.536,1.584 2.262,1.984 0.646,-0.819 1.529,-3.514 -1.246,-5.128 0.315,1.532 -0.012,2.556 -1.016,3.144 z"
           fill="#cd3529"
           id="path38"
           style="stroke-width:3.11884" />
        <path
           d="m 73.598,133.594 c -0.163,-1.312 0.82,-2.541 2.284,-2.92 -0.99,-0.326 -4.987,-0.688 -6.855,2.625 0.732,-0.004 3.67,-1.264 4.571,0.295 z m -4.043,10.515 c -0.148,-0.416 -1.038,-2.037 -1.99,-2.455 -0.765,0.709 -2.326,2.428 -0.745,5.787 0.352,-0.644 1.251,-3.142 2.735,-3.332 z m 6.649,4.377 c -0.348,-0.271 -1.531,-1.09 -2.863,-1.178 -0.265,1.008 -0.972,2.92 2.34,5.455 -0.047,-0.73 -0.628,-3.322 0.523,-4.277 z m 10.871,-1.07 c -0.44,0.039 -2.004,0.107 -2.917,1.203 0.493,0.918 1.731,2.756 5.452,2.283 -0.532,-0.504 -2.725,-2.002 -2.535,-3.486 z m 46.216,3.361 c -0.439,0.037 -2.004,0.105 -2.916,1.201 1.484,3.328 4.434,2.346 5.779,0.234 -0.361,0.145 -3.72,0.638 -2.863,-1.435 z M 139,142.826 c -0.01,0.928 -0.832,1.992 -2.014,2.592 4.215,2.023 5.605,-1.178 5.049,-3.619 -0.152,0.359 -1.939,2.486 -3.035,1.027 z m -15.992,9.834 c -0.229,-0.379 -0.969,-1.758 -2.354,-2.1 -2.35,2.785 -0.18,5.014 2.307,5.305 -0.289,-0.263 -2.193,-3.072 0.047,-3.205 z m -1.395,-7.865 c 0.537,-0.428 -0.215,-2.148 -1.471,-2.826 -2.705,0.434 -3.688,3.588 -0.965,4.648 -0.306,-0.609 0.235,-2.252 2.436,-1.822 z M 71.304,56.402 c 0.819,-0.984 3.441,-4.589 6.063,-4.589 3.278,0 3.278,6.719 8.194,6.719 1.229,0 1.557,-0.696 2.233,-1.392 -0.758,0.41 -3.38,1.885 -5.837,-5.327 -1.64,-1.147 -2.624,-5.08 1.801,-5.08 l 5.409,-0.165 c 0.654,-1.966 7.21,-5.9 12.292,-5.735 0.328,-2.459 3.277,-7.867 10.816,-5.735 0,0 -4.262,2.622 -4.262,3.932 2.949,-1.639 8.193,0.328 10.326,-3.932 0.654,1.801 0.164,5.244 -5.736,7.702 3.932,-0.491 9.832,-0.164 13.602,-2.131 -0.162,4.753 -9.67,5.082 -9.832,7.375 -0.166,1.803 0.818,4.916 2.949,4.916 0.656,0 2.295,-0.163 2.623,-1.31 1.639,3.113 -1.803,8.194 -7.047,6.556 3.113,3.604 -0.166,13.274 7.209,9.996 -1.146,3.114 -3.604,7.047 -8.686,4.753 0,6.228 6.721,6.063 6.721,13.275 0,1.803 -1.967,5.9 -4.098,7.703 0,-3.605 -4.998,-7.293 -7.047,-5.246 0,13.932 -9.506,10.489 -9.506,16.063 -1.311,-2.131 0.982,-6.066 0.492,-7.213 -4.917,8.031 -10.817,5.9 -10.817,7.375 0,-2.949 1.966,-4.426 1.966,-5.9 0,-2.457 -2.131,-6.227 -1.147,-7.375 -1.967,1.968 -8.522,1.147 -9.833,4.917 -0.493,-1.148 -1.803,-3.606 2.458,-8.031 -4.261,2.458 -8.441,-2.704 -11.882,2.868 -0.656,-3.934 1.393,-6.31 4.506,-9.096 -2.95,0.656 -5.736,0 -6.227,1.803 0.655,-3.606 4.261,-4.26 6.392,-5.572 2.131,-1.147 3.441,-2.541 5.572,-4.998 1.311,-1.803 4.917,-4.016 12.947,-4.18 0.329,0.083 1.064,-0.82 1.064,-1.311 -0.164,0.328 -2.704,2.376 -4.507,-0.165 -0.738,0.574 -2.728,2.294 -5.489,1.065 -0.656,-2.294 2.867,-1.72 1.474,-5.982 -8.849,0 -7.292,-6.31 -8.849,-6.31 -1.23,0 -3.032,1.884 -5.162,1.393 -0.573,-0.079 -2.046,-0.407 -1.145,-1.636 z M 101.787,45.75 c -4.754,-0.82 -4.426,1.311 -5.245,2.13 5.737,1.147 4.589,-2.13 5.245,-2.13 z M 94.74,60.991 c -1.64,-2.131 -4.262,-0.328 -4.753,-0.165 2.786,4.262 3.441,0 4.753,0.165 z"
           fill="#cd3529"
           id="path40"
           style="stroke-width:3.11884" />
      </g>
    </g>
  </g>
</svg>
